<?xml version="1.0" encoding="UTF-8" standalone="no"?>
<!DOCTYPE svg PUBLIC "-//W3C//DTD SVG 1.1//EN"
 "http://www.w3.org/Graphics/SVG/1.1/DTD/svg11.dtd">
<!-- Generated by graphviz version 2.38.0 (20140413.2041)
 -->
<!-- Title: %3 Pages: 1 -->
<svg width="61567pt" height="62pt"
 viewBox="0.00 0.00 61567.00 62.00" xmlns="http://www.w3.org/2000/svg" xmlns:xlink="http://www.w3.org/1999/xlink">
<g id="graph0" class="graph" transform="scale(1 1) rotate(0) translate(4 58)">
<title>%3</title>
<!-- 2623859914512 -->
<g id="node1" class="node"><title>2623859914512</title>
<polygon fill="none" stroke="black" points="8458,-45 2574,-45 2574,-9 8458,-9 8458,-45"/>
<text text-anchor="middle" x="5516" y="-23.3" font-family="Times New Roman,serif" font-size="14.00">&#45;&#45;&gt; POST https://amos&#45;modelbank&#45;xs2a.cloud.adorsys.de/v1/consents?limit=10&amp;balanceTypes=interimBooked HTTP/1.1\n	&#45;&#45;&gt; Correlation&#45;ID: A96C07D81DAA2A529B9C6E45C933D27B\n	&#45;&#45;&gt; Accept: application/json\n	&#45;&#45;&gt; TPP&#45;Nok&#45;Redirect&#45;URI: https://amos&#45;modelbank&#45;xs2a&#45;adapter&#45;ui&#45;service.cloud.adorsys.de/nok&#45;redirect\n	&#45;&#45;&gt; X&#45;Request&#45;ID: ecd9e03f&#45;6619&#45;47b0&#45;b682&#45;39ed5cd9962f\n	&#45;&#45;&gt; TPP&#45;Redirect&#45;Preferred: false\n	&#45;&#45;&gt; X&#45;GTW&#45;ASPSP&#45;ID: 53c47f54&#45;b9a4&#45;465a&#45;8f77&#45;bc6cd5f0cf46\n	&#45;&#45;&gt; PSU&#45;ID: ******\n	&#45;&#45;&gt; PSU&#45;IP&#45;Address: 0.0.0.0\n	&#45;&#45;&gt; TPP&#45;Redirect&#45;URI: https://amos&#45;modelbank&#45;xs2a&#45;adapter&#45;ui&#45;service.cloud.adorsys.de/redirect\n	&#45;&#45;&gt;\n	&#45;&#45;&gt; Request body [application/json; charset=UTF&#45;8]: {&quot;access&quot;:{&quot;accounts&quot;:[],&quot;balances&quot;:[],&quot;transactions&quot;:[],&quot;additionalInformation&quot;:{&quot;ownerName&quot;:[]},&quot;availableAccounts&quot;:&quot;******&quot;,&quot;availableAccountsWithBalance&quot;:&quot;******&quot;,&quot;allPsd2&quot;:&quot;******&quot;},&quot;recurringIndicator&quot;:true,&quot;validUntil&quot;:&quot;2020&#45;05&#45;31&quot;,&quot;frequencyPerDay&quot;:4,&quot;combinedServiceIndicator&quot;:false}\n	&#45;&#45;&gt;</text>
</g>
<!-- 2623859916472 -->
<g id="node45" class="node"><title>2623859916472</title>
<ellipse fill="none" stroke="black" cx="8521" cy="-27" rx="27" ry="27"/>
</g>
<!-- 2623859914512&#45;&gt;2623859916472 -->
<g id="edge1" class="edge"><title>2623859914512&#45;&gt;2623859916472</title>
<path fill="none" stroke="black" d="M8458.31,-27C8467.84,-27 8476.33,-27 8483.74,-27"/>
<polygon fill="black" stroke="black" points="8483.82,-30.5001 8493.82,-27 8483.82,-23.5001 8483.82,-30.5001"/>
</g>
<!-- 2623859915016 -->
<g id="node2" class="node"><title>2623859915016</title>
<polygon fill="none" stroke="black" points="23424,-45 19700,-45 19700,-9 23424,-9 23424,-45"/>
<text text-anchor="middle" x="21562" y="-23.3" font-family="Times New Roman,serif" font-size="14.00">&#45;&#45;&gt; PUT https://amos&#45;modelbank&#45;xs2a.cloud.adorsys.de/v1/consents/******/authorisations/******?limit=10&amp;balanceTypes=interimBooked HTTP/1.1\n	&#45;&#45;&gt; Correlation&#45;ID: A96C07D81DAA2A529B9C6E45C933D27B\n	&#45;&#45;&gt; Accept: application/json\n	&#45;&#45;&gt; X&#45;Request&#45;ID: 109bb944&#45;c7c7&#45;476a&#45;8d6a&#45;7bea0a723bd8\n	&#45;&#45;&gt; X&#45;GTW&#45;ASPSP&#45;ID: 53c47f54&#45;b9a4&#45;465a&#45;8f77&#45;bc6cd5f0cf46\n	&#45;&#45;&gt; PSU&#45;ID: ******\n	&#45;&#45;&gt; PSU&#45;IP&#45;Address: 0.0.0.0\n	&#45;&#45;&gt; TPP&#45;Redirect&#45;URI: https://amos&#45;modelbank&#45;xs2a&#45;adapter&#45;ui&#45;service.cloud.adorsys.de/redirect\n	&#45;&#45;&gt;\n	&#45;&#45;&gt; Request body [application/json; charset=UTF&#45;8]: {&quot;scaAuthenticationData&quot;:&quot;******&quot;}\n	&#45;&#45;&gt;</text>
</g>
<!-- 2623865228704 -->
<g id="node32" class="node"><title>2623865228704</title>
<ellipse fill="none" stroke="black" cx="23487" cy="-27" rx="27" ry="27"/>
</g>
<!-- 2623859915016&#45;&gt;2623865228704 -->
<g id="edge2" class="edge"><title>2623859915016&#45;&gt;2623865228704</title>
<path fill="none" stroke="black" d="M23424.2,-27C23433.8,-27 23442.3,-27 23449.8,-27"/>
<polygon fill="black" stroke="black" points="23449.9,-30.5001 23459.9,-27 23449.9,-23.5001 23449.9,-30.5001"/>
</g>
<!-- 2623859914848 -->
<g id="node3" class="node"><title>2623859914848</title>
<polygon fill="none" stroke="black" points="18262,-45 14538,-45 14538,-9 18262,-9 18262,-45"/>
<text text-anchor="middle" x="16400" y="-23.3" font-family="Times New Roman,serif" font-size="14.00">&#45;&#45;&gt; PUT https://amos&#45;modelbank&#45;xs2a.cloud.adorsys.de/v1/consents/******/authorisations/******?limit=10&amp;balanceTypes=interimBooked HTTP/1.1\n	&#45;&#45;&gt; Correlation&#45;ID: A96C07D81DAA2A529B9C6E45C933D27B\n	&#45;&#45;&gt; Accept: application/json\n	&#45;&#45;&gt; X&#45;Request&#45;ID: 1d25422d&#45;fc9a&#45;451f&#45;8bf6&#45;77b6433973d6\n	&#45;&#45;&gt; X&#45;GTW&#45;ASPSP&#45;ID: 53c47f54&#45;b9a4&#45;465a&#45;8f77&#45;bc6cd5f0cf46\n	&#45;&#45;&gt; PSU&#45;ID: ******\n	&#45;&#45;&gt; PSU&#45;IP&#45;Address: 0.0.0.0\n	&#45;&#45;&gt; TPP&#45;Redirect&#45;URI: https://amos&#45;modelbank&#45;xs2a&#45;adapter&#45;ui&#45;service.cloud.adorsys.de/redirect\n	&#45;&#45;&gt;\n	&#45;&#45;&gt; Request body [application/json; charset=UTF&#45;8]: {&quot;authenticationMethodId&quot;:&quot;******&quot;}\n	&#45;&#45;&gt;</text>
</g>
<!-- 2623865228368 -->
<g id="node52" class="node"><title>2623865228368</title>
<ellipse fill="none" stroke="black" cx="18325" cy="-27" rx="27" ry="27"/>
</g>
<!-- 2623859914848&#45;&gt;2623865228368 -->
<g id="edge3" class="edge"><title>2623859914848&#45;&gt;2623865228368</title>
<path fill="none" stroke="black" d="M18262.2,-27C18271.8,-27 18280.3,-27 18287.8,-27"/>
<polygon fill="black" stroke="black" points="18287.9,-30.5001 18297.9,-27 18287.9,-23.5001 18287.9,-30.5001"/>
</g>
<!-- 2623859914736 -->
<g id="node4" class="node"><title>2623859914736</title>
<polygon fill="none" stroke="black" points="13876,-45 10152,-45 10152,-9 13876,-9 13876,-45"/>
<text text-anchor="middle" x="12014" y="-23.3" font-family="Times New Roman,serif" font-size="14.00">&#45;&#45;&gt; PUT https://amos&#45;modelbank&#45;xs2a.cloud.adorsys.de/v1/consents/******/authorisations/******?limit=10&amp;balanceTypes=interimBooked HTTP/1.1\n	&#45;&#45;&gt; Correlation&#45;ID: A96C07D81DAA2A529B9C6E45C933D27B\n	&#45;&#45;&gt; Accept: application/json\n	&#45;&#45;&gt; X&#45;Request&#45;ID: f7ac22f9&#45;9e9a&#45;439c&#45;88b0&#45;2b4db0756a7f\n	&#45;&#45;&gt; X&#45;GTW&#45;ASPSP&#45;ID: 53c47f54&#45;b9a4&#45;465a&#45;8f77&#45;bc6cd5f0cf46\n	&#45;&#45;&gt; PSU&#45;ID: ******\n	&#45;&#45;&gt; PSU&#45;IP&#45;Address: 0.0.0.0\n	&#45;&#45;&gt; TPP&#45;Redirect&#45;URI: https://amos&#45;modelbank&#45;xs2a&#45;adapter&#45;ui&#45;service.cloud.adorsys.de/redirect\n	&#45;&#45;&gt;\n	&#45;&#45;&gt; Request body [application/json; charset=UTF&#45;8]: {&quot;psuData&quot;:{&quot;password&quot;:&quot;******&quot;}}\n	&#45;&#45;&gt;</text>
</g>
<!-- 2623865228144 -->
<g id="node51" class="node"><title>2623865228144</title>
<ellipse fill="none" stroke="black" cx="13939" cy="-27" rx="27" ry="27"/>
</g>
<!-- 2623859914736&#45;&gt;2623865228144 -->
<g id="edge4" class="edge"><title>2623859914736&#45;&gt;2623865228144</title>
<path fill="none" stroke="black" d="M13876.2,-27C13885.8,-27 13894.3,-27 13901.8,-27"/>
<polygon fill="black" stroke="black" points="13901.9,-30.5001 13911.9,-27 13901.9,-23.5001 13901.9,-30.5001"/>
</g>
<!-- 2623859915072 -->
<g id="node5" class="node"><title>2623859915072</title>
<polygon fill="none" stroke="black" points="25804,-45 23550,-45 23550,-9 25804,-9 25804,-45"/>
<text text-anchor="middle" x="24677" y="-23.3" font-family="Times New Roman,serif" font-size="14.00">&lt;&#45;&#45; HTTP/1.1 200 \n	&lt;&#45;&#45; aspsp&#45;sca&#45;approach: EMBEDDED\n	&lt;&#45;&#45; x&#45;request&#45;id: 109bb944&#45;c7c7&#45;476a&#45;8d6a&#45;7bea0a723bd8\n	&lt;&#45;&#45; date: Sat, 30 May 2020 11:46:41 GMT\n	&lt;&#45;&#45; content&#45;length: 290\n	&lt;&#45;&#45; vary: Access&#45;Control&#45;Request&#45;Headers\n	&lt;&#45;&#45; x&#45;robots&#45;tag: none\n	&lt;&#45;&#45; content&#45;type: application/json\n	&lt;&#45;&#45;\n	&lt;&#45;&#45; Response body [application/json]: {&quot;scaStatus&quot;:&quot;******&quot;}\n	&lt;&#45;&#45;</text>
</g>
<!-- 2623865228816 -->
<g id="node46" class="node"><title>2623865228816</title>
<ellipse fill="none" stroke="black" cx="25867" cy="-27" rx="27" ry="27"/>
</g>
<!-- 2623859915072&#45;&gt;2623865228816 -->
<g id="edge5" class="edge"><title>2623859915072&#45;&gt;2623865228816</title>
<path fill="none" stroke="black" d="M25804.2,-27C25813.7,-27 25822.1,-27 25829.6,-27"/>
<polygon fill="black" stroke="black" points="25829.7,-30.5001 25839.7,-27 25829.7,-23.5001 25829.7,-30.5001"/>
</g>
<!-- 2623859915352 -->
<g id="node6" class="node"><title>2623859915352</title>
<polygon fill="none" stroke="black" points="53403,-45 29999,-45 29999,-9 53403,-9 53403,-45"/>
<text text-anchor="middle" x="41701" y="-23.3" font-family="Times New Roman,serif" font-size="14.00">&lt;&#45;&#45; HTTP/1.1 200 \n	&lt;&#45;&#45; x&#45;request&#45;id: 020e5fd4&#45;c707&#45;4ae8&#45;9414&#45;c5e9d2aa187c\n	&lt;&#45;&#45; date: Sat, 30 May 2020 11:46:41 GMT\n	&lt;&#45;&#45; content&#45;length: 4900\n	&lt;&#45;&#45; vary: Access&#45;Control&#45;Request&#45;Headers\n	&lt;&#45;&#45; x&#45;robots&#45;tag: none\n	&lt;&#45;&#45; content&#45;type: application/json\n	&lt;&#45;&#45;\n	&lt;&#45;&#45; Response body [application/json]: {&quot;account&quot;:{&quot;iban&quot;:&quot;******&quot;,&quot;currency&quot;:&quot;******&quot;},&quot;transactions&quot;:{&quot;booked&quot;:[{&quot;transactionId&quot;:&quot;******&quot;,&quot;endToEndId&quot;:&quot;******&quot;,&quot;bookingDate&quot;:&quot;******&quot;,&quot;valueDate&quot;:&quot;******&quot;,&quot;transactionAmount&quot;:{&quot;currency&quot;:&quot;******&quot;,&quot;amount&quot;:&quot;******&quot;},&quot;creditorName&quot;:&quot;******&quot;,&quot;creditorAccount&quot;:{&quot;iban&quot;:&quot;******&quot;,&quot;currency&quot;:&quot;******&quot;},&quot;debtorName&quot;:&quot;******&quot;,&quot;debtorAccount&quot;:{&quot;iban&quot;:&quot;******&quot;,&quot;currency&quot;:&quot;******&quot;},&quot;remittanceInformationUnstructured&quot;:&quot;******&quot;,&quot;remittanceInformationUnstructuredArray&quot;:[&quot;******&quot;],&quot;remittanceInformationStructuredArray&quot;:[{&quot;reference&quot;:&quot;******&quot;,&quot;referenceType&quot;:&quot;******&quot;,&quot;referenceIssuer&quot;:&quot;******&quot;}],&quot;additionalInformation&quot;:&quot;******&quot;,&quot;bankTransactionCode&quot;:&quot;******&quot;,&quot;proprietaryBankTransactionCode&quot;:&quot;******&quot;,&quot;balanceAfterTransaction&quot;:{&quot;balanceAmount&quot;:{&quot;currency&quot;:&quot;******&quot;,&quot;amount&quot;:&quot;******&quot;},&quot;balanceType&quot;:&quot;******&quot;,&quot;lastChangeDateTime&quot;:&quot;******&quot;,&quot;referenceDate&quot;:&quot;******&quot;}},{&quot;transactionId&quot;:&quot;******&quot;,&quot;bookingDate&quot;:&quot;******&quot;,&quot;valueDate&quot;:&quot;******&quot;,&quot;transactionAmount&quot;:{&quot;currency&quot;:&quot;******&quot;,&quot;amount&quot;:&quot;******&quot;},&quot;creditorName&quot;:&quot;******&quot;,&quot;creditorAccount&quot;:{&quot;iban&quot;:&quot;******&quot;,&quot;currency&quot;:&quot;******&quot;},&quot;debtorAccount&quot;:{&quot;iban&quot;:&quot;******&quot;,&quot;currency&quot;:&quot;******&quot;},&quot;remittanceInformationUnstructuredArray&quot;:[&quot;******&quot;],&quot;remittanceInformationStructuredArray&quot;:[{&quot;reference&quot;:&quot;******&quot;,&quot;referenceType&quot;:&quot;******&quot;,&quot;referenceIssuer&quot;:&quot;******&quot;}],&quot;additionalInformation&quot;:&quot;******&quot;,&quot;bankTransactionCode&quot;:&quot;******&quot;,&quot;proprietaryBankTransactionCode&quot;:&quot;******&quot;,&quot;balanceAfterTransaction&quot;:{&quot;balanceAmount&quot;:{&quot;currency&quot;:&quot;******&quot;,&quot;amount&quot;:&quot;******&quot;},&quot;balanceType&quot;:&quot;******&quot;,&quot;lastChangeDateTime&quot;:&quot;******&quot;,&quot;referenceDate&quot;:&quot;******&quot;}},{&quot;transactionId&quot;:&quot;******&quot;,&quot;endToEndId&quot;:&quot;******&quot;,&quot;bookingDate&quot;:&quot;******&quot;,&quot;valueDate&quot;:&quot;******&quot;,&quot;transactionAmount&quot;:{&quot;currency&quot;:&quot;******&quot;,&quot;amount&quot;:&quot;******&quot;},&quot;creditorName&quot;:&quot;******&quot;,&quot;creditorAccount&quot;:{&quot;iban&quot;:&quot;******&quot;,&quot;currency&quot;:&quot;******&quot;},&quot;debtorName&quot;:&quot;******&quot;,&quot;debtorAccount&quot;:{&quot;iban&quot;:&quot;******&quot;,&quot;currency&quot;:&quot;******&quot;},&quot;remittanceInformationUnstructured&quot;:&quot;******&quot;,&quot;remittanceInformationUnstructuredArray&quot;:[&quot;******&quot;],&quot;remittanceInformationStructuredArray&quot;:[{&quot;reference&quot;:&quot;******&quot;,&quot;referenceType&quot;:&quot;******&quot;,&quot;referenceIssuer&quot;:&quot;******&quot;}],&quot;additionalInformation&quot;:&quot;******&quot;,&quot;bankTransactionCode&quot;:&quot;******&quot;,&quot;proprietaryBankTransactionCode&quot;:&quot;******&quot;,&quot;balanceAfterTransaction&quot;:{&quot;balanceAmount&quot;:{&quot;currency&quot;:&quot;******&quot;,&quot;amount&quot;:&quot;******&quot;},&quot;balanceType&quot;:&quot;******&quot;,&quot;lastChangeDateTime&quot;:&quot;******&quot;,&quot;referenceDate&quot;:&quot;******&quot;}},{&quot;transactionId&quot;:&quot;******&quot;,&quot;endToEndId&quot;:&quot;******&quot;,&quot;bookingDate&quot;:&quot;******&quot;,&quot;valueDate&quot;:&quot;******&quot;,&quot;transactionAmount&quot;:{&quot;currency&quot;:&quot;******&quot;,&quot;amount&quot;:&quot;******&quot;},&quot;creditorName&quot;:&quot;******&quot;,&quot;creditorAccount&quot;:{&quot;iban&quot;:&quot;******&quot;,&quot;currency&quot;:&quot;******&quot;},&quot;debtorName&quot;:&quot;******&quot;,&quot;debtorAccount&quot;:{&quot;iban&quot;:&quot;******&quot;,&quot;currency&quot;:&quot;******&quot;},&quot;remittanceInformationUnstructured&quot;:&quot;******&quot;,&quot;remittanceInformationUnstructuredArray&quot;:[&quot;******&quot;],&quot;remittanceInformationStructuredArray&quot;:[{&quot;reference&quot;:&quot;******&quot;,&quot;referenceType&quot;:&quot;******&quot;,&quot;referenceIssuer&quot;:&quot;******&quot;}],&quot;additionalInformation&quot;:&quot;******&quot;,&quot;bankTransactionCode&quot;:&quot;******&quot;,&quot;proprietaryBankTransactionCode&quot;:&quot;******&quot;,&quot;balanceAfterTransaction&quot;:{&quot;balanceAmount&quot;:{&quot;currency&quot;:&quot;******&quot;,&quot;amount&quot;:&quot;******&quot;},&quot;balanceType&quot;:&quot;******&quot;,&quot;lastChangeDateTime&quot;:&quot;******&quot;,&quot;referenceDate&quot;:&quot;******&quot;}}],&quot;_links&quot;:{&quot;account&quot;:{&quot;href&quot;:&quot;******&quot;},&quot;balances&quot;:{&quot;href&quot;:&quot;******&quot;}}},&quot;balances&quot;:[{&quot;balanceAmount&quot;:{&quot;currency&quot;:&quot;******&quot;,&quot;amount&quot;:&quot;******&quot;},&quot;balanceType&quot;:&quot;******&quot;,&quot;lastChangeDateTime&quot;:&quot;******&quot;,&quot;referenceDate&quot;:&quot;******&quot;},{&quot;balanceAmount&quot;:{&quot;currency&quot;:&quot;******&quot;,&quot;amount&quot;:&quot;******&quot;},&quot;balanceType&quot;:&quot;******&quot;,&quot;lastChangeDateTime&quot;:&quot;******&quot;,&quot;referenceDate&quot;:&quot;******&quot;}],&quot;_links&quot;:{&quot;balances&quot;:{&quot;href&quot;:&quot;******&quot;},&quot;download&quot;:{&quot;href&quot;:&quot;******&quot;}}}\n	&lt;&#45;&#45;</text>
</g>
<!-- 2623865282688 -->
<g id="node49" class="node"><title>2623865282688</title>
<ellipse fill="none" stroke="black" cx="53466" cy="-27" rx="27" ry="27"/>
</g>
<!-- 2623859915352&#45;&gt;2623865282688 -->
<g id="edge6" class="edge"><title>2623859915352&#45;&gt;2623865282688</title>
<path fill="none" stroke="black" d="M53403.1,-27C53412.7,-27 53421.2,-27 53428.7,-27"/>
<polygon fill="black" stroke="black" points="53428.7,-30.5001 53438.7,-27 53428.7,-23.5001 53428.7,-30.5001"/>
</g>
<!-- 2623859915520 -->
<g id="node7" class="node"><title>2623859915520</title>
<polygon fill="none" stroke="black" points="56895,-45 54731,-45 54731,-9 56895,-9 56895,-45"/>
<text text-anchor="middle" x="55813" y="-23.3" font-family="Times New Roman,serif" font-size="14.00">&lt;&#45;&#45; HTTP/1.1 200 \n	&lt;&#45;&#45; x&#45;request&#45;id: 3881907c&#45;2f9d&#45;46ad&#45;9c72&#45;ad97ba323f8f\n	&lt;&#45;&#45; date: Sat, 30 May 2020 11:46:41 GMT\n	&lt;&#45;&#45; content&#45;length: 85\n	&lt;&#45;&#45; vary: Access&#45;Control&#45;Request&#45;Headers\n	&lt;&#45;&#45; x&#45;robots&#45;tag: none\n	&lt;&#45;&#45; content&#45;type: application/json\n	&lt;&#45;&#45;\n	&lt;&#45;&#45; Response body [application/json]: {&quot;consentStatus&quot;:&quot;******&quot;,&quot;psuMessage&quot;:&quot;******&quot;}\n	&lt;&#45;&#45;</text>
</g>
<!-- 2623865283024 -->
<g id="node38" class="node"><title>2623865283024</title>
<ellipse fill="none" stroke="black" cx="56958" cy="-27" rx="27" ry="27"/>
</g>
<!-- 2623859915520&#45;&gt;2623865283024 -->
<g id="edge7" class="edge"><title>2623859915520&#45;&gt;2623865283024</title>
<path fill="none" stroke="black" d="M56895.1,-27C56904.7,-27 56913.3,-27 56920.8,-27"/>
<polygon fill="black" stroke="black" points="56921,-30.5001 56931,-27 56921,-23.5001 56921,-30.5001"/>
</g>
<!-- 2623859915184 -->
<g id="node8" class="node"><title>2623859915184</title>
<polygon fill="none" stroke="black" points="29281,-45 26157,-45 26157,-9 29281,-9 29281,-45"/>
<text text-anchor="middle" x="27719" y="-23.3" font-family="Times New Roman,serif" font-size="14.00">&lt;&#45;&#45; HTTP/1.1 200 \n	&lt;&#45;&#45; x&#45;request&#45;id: 871641d4&#45;dda6&#45;4bd3&#45;910b&#45;527e384abe53\n	&lt;&#45;&#45; date: Sat, 30 May 2020 11:46:41 GMT\n	&lt;&#45;&#45; content&#45;length: 516\n	&lt;&#45;&#45; vary: Access&#45;Control&#45;Request&#45;Headers\n	&lt;&#45;&#45; x&#45;robots&#45;tag: none\n	&lt;&#45;&#45; content&#45;type: application/json\n	&lt;&#45;&#45;\n	&lt;&#45;&#45; Response body [application/json]: {&quot;accounts&quot;:[{&quot;resourceId&quot;:&quot;******&quot;,&quot;iban&quot;:&quot;******&quot;,&quot;currency&quot;:&quot;******&quot;,&quot;name&quot;:&quot;******&quot;,&quot;displayName&quot;:&quot;******&quot;,&quot;cashAccountType&quot;:&quot;******&quot;,&quot;status&quot;:&quot;******&quot;,&quot;linkedAccounts&quot;:&quot;******&quot;,&quot;ownerName&quot;:&quot;******&quot;}]}\n	&lt;&#45;&#45;</text>
</g>
<!-- 2623865229040 -->
<g id="node47" class="node"><title>2623865229040</title>
<ellipse fill="none" stroke="black" cx="29344" cy="-27" rx="27" ry="27"/>
</g>
<!-- 2623859915184&#45;&gt;2623865229040 -->
<g id="edge8" class="edge"><title>2623859915184&#45;&gt;2623865229040</title>
<path fill="none" stroke="black" d="M29281.4,-27C29290.9,-27 29299.4,-27 29306.8,-27"/>
<polygon fill="black" stroke="black" points="29306.9,-30.5001 29316.9,-27 29306.9,-23.5001 29306.9,-30.5001"/>
</g>
<!-- 2623859915632 -->
<g id="node9" class="node"><title>2623859915632</title>
<polygon fill="none" stroke="black" points="59303,-45 57289,-45 57289,-9 59303,-9 59303,-45"/>
<text text-anchor="middle" x="58296" y="-23.3" font-family="Times New Roman,serif" font-size="14.00">&lt;&#45;&#45; HTTP/1.1 200 \n	&lt;&#45;&#45; x&#45;request&#45;id: a894113e&#45;7e70&#45;44af&#45;bdc2&#45;cf4fac021541\n	&lt;&#45;&#45; date: Sat, 30 May 2020 11:46:42 GMT\n	&lt;&#45;&#45; content&#45;length: 55\n	&lt;&#45;&#45; vary: Access&#45;Control&#45;Request&#45;Headers\n	&lt;&#45;&#45; x&#45;robots&#45;tag: none\n	&lt;&#45;&#45; content&#45;type: application/json\n	&lt;&#45;&#45;\n	&lt;&#45;&#45; Response body [application/json]: {&quot;scaStatus&quot;:&quot;******&quot;}\n	&lt;&#45;&#45;</text>
</g>
<!-- 2623865283248 -->
<g id="node44" class="node"><title>2623865283248</title>
<ellipse fill="none" stroke="black" cx="59366" cy="-27" rx="27" ry="27"/>
</g>
<!-- 2623859915632&#45;&gt;2623865283248 -->
<g id="edge9" class="edge"><title>2623859915632&#45;&gt;2623865283248</title>
<path fill="none" stroke="black" d="M59303.4,-27C59312.7,-27 59321.2,-27 59328.6,-27"/>
<polygon fill="black" stroke="black" points="59328.7,-30.5001 59338.7,-27 59328.7,-23.5001 59328.7,-30.5001"/>
</g>
<!-- 2623859915744 -->
<g id="node10" class="node"><title>2623859915744</title>
<polygon fill="none" stroke="black" points="61172,-45 59698,-45 59698,-9 61172,-9 61172,-45"/>
<text text-anchor="middle" x="60435" y="-23.3" font-family="Times New Roman,serif" font-size="14.00">&lt;&#45;&#45; HTTP/1.1 204 \n	&lt;&#45;&#45; x&#45;request&#45;id: bf0acb99&#45;d3f5&#45;44b8&#45;9d57&#45;12ae0209de33\n	&lt;&#45;&#45; date: Sat, 30 May 2020 11:46:42 GMT\n	&lt;&#45;&#45; vary: Access&#45;Control&#45;Request&#45;Headers\n	&lt;&#45;&#45; x&#45;robots&#45;tag: none\n	&lt;&#45;&#45;\n	&lt;&#45;&#45; Response body []: ******\n	&lt;&#45;&#45;</text>
</g>
<!-- 2623865283472 -->
<g id="node39" class="node"><title>2623865283472</title>
<ellipse fill="none" stroke="black" cx="61235" cy="-27" rx="27" ry="27"/>
</g>
<!-- 2623859915744&#45;&gt;2623865283472 -->
<g id="edge10" class="edge"><title>2623859915744&#45;&gt;2623865283472</title>
<path fill="none" stroke="black" d="M61172,-27C61181.5,-27 61190,-27 61197.5,-27"/>
<polygon fill="black" stroke="black" points="61197.7,-30.5001 61207.7,-27 61197.7,-23.5001 61197.7,-30.5001"/>
</g>
<!-- 2623859915576 -->
<g id="node11" class="node"><title>2623859915576</title>
<polygon fill="none" stroke="black" points="57163,-45 57021,-45 57021,-9 57163,-9 57163,-45"/>
<text text-anchor="middle" x="57092" y="-23.3" font-family="Times New Roman,serif" font-size="14.00">Consent status is valid</text>
</g>
<!-- 2623865283136 -->
<g id="node36" class="node"><title>2623865283136</title>
<ellipse fill="none" stroke="black" cx="57226" cy="-27" rx="27" ry="27"/>
</g>
<!-- 2623859915576&#45;&gt;2623865283136 -->
<g id="edge11" class="edge"><title>2623859915576&#45;&gt;2623865283136</title>
<path fill="none" stroke="black" d="M57163.3,-27C57172.1,-27 57180.8,-27 57188.8,-27"/>
<polygon fill="black" stroke="black" points="57188.8,-30.5001 57198.8,-27 57188.8,-23.5001 57188.8,-30.5001"/>
</g>
<!-- 2623859915800 -->
<g id="node12" class="node"><title>2623859915800</title>
<polygon fill="none" stroke="black" points="61469,-45 61298,-45 61298,-9 61469,-9 61469,-45"/>
<text text-anchor="middle" x="61383.5" y="-23.3" font-family="Times New Roman,serif" font-size="14.00">Delete consent status is 204</text>
</g>
<!-- 2623859914344 -->
<g id="node53" class="node"><title>2623859914344</title>
<ellipse fill="orange" stroke="black" cx="61532" cy="-27" rx="27" ry="27"/>
</g>
<!-- 2623859915800&#45;&gt;2623859914344 -->
<g id="edge12" class="edge"><title>2623859915800&#45;&gt;2623859914344</title>
<path fill="none" stroke="black" d="M61469.3,-27C61478.2,-27 61486.8,-27 61494.7,-27"/>
<polygon fill="black" stroke="black" points="61494.9,-30.5001 61504.9,-27 61494.9,-23.5001 61494.9,-30.5001"/>
</g>
<!-- 2623859914456 -->
<g id="node13" class="node"><title>2623859914456</title>
<polygon fill="none" stroke="black" points="2448,-45 321,-45 321,-9 2448,-9 2448,-45"/>
<text text-anchor="middle" x="1384.5" y="-23.3" font-family="Times New Roman,serif" font-size="14.00">Processing AspspFoundEvent: AspspFoundEvent{data=AspspTO{id=&#39;53c47f54&#45;b9a4&#45;465a&#45;8f77&#45;bc6cd5f0cf46&#39;, name=&#39;adorsys xs2a&#39;, bic=&#39;ADORSYS&#39;, bankCode=&#39;99999999&#39;, url=&#39;https://amos&#45;modelbank&#45;xs2a.cloud.adorsys.de&#39;, adapterId=&#39;adorsys&#45;integ&#45;adapter&#39;, idpUrl=&#39;null&#39;, scaApproaches=null, paginationId=&#39;0:1.0&#39;}, approach=UNKNOWN, step=ASPSP_LOOKUP}</text>
</g>
<!-- 2623859916248 -->
<g id="node28" class="node"><title>2623859916248</title>
<ellipse fill="none" stroke="black" cx="2511" cy="-27" rx="27" ry="27"/>
</g>
<!-- 2623859914456&#45;&gt;2623859916248 -->
<g id="edge13" class="edge"><title>2623859914456&#45;&gt;2623859916248</title>
<path fill="none" stroke="black" d="M2448.34,-27C2457.75,-27 2466.21,-27 2473.63,-27"/>
<polygon fill="black" stroke="black" points="2473.74,-30.5001 2483.74,-27 2473.74,-23.5001 2473.74,-30.5001"/>
</g>
<!-- 2623859914960 -->
<g id="node14" class="node"><title>2623859914960</title>
<polygon fill="none" stroke="black" points="19574,-45 18984,-45 18984,-9 19574,-9 19574,-45"/>
<text text-anchor="middle" x="19279" y="-23.3" font-family="Times New Roman,serif" font-size="14.00">Processing OtpRequiredEvent: BaseEvent{data=******, approach=EMBEDDED, step=SEND_OTP}</text>
</g>
<!-- 2623865228592 -->
<g id="node29" class="node"><title>2623865228592</title>
<ellipse fill="none" stroke="black" cx="19637" cy="-27" rx="27" ry="27"/>
</g>
<!-- 2623859914960&#45;&gt;2623865228592 -->
<g id="edge14" class="edge"><title>2623859914960&#45;&gt;2623865228592</title>
<path fill="none" stroke="black" d="M19574.4,-27C19583.6,-27 19592.1,-27 19599.7,-27"/>
<polygon fill="black" stroke="black" points="19599.7,-30.5001 19609.7,-27 19599.7,-23.5001 19599.7,-30.5001"/>
</g>
<!-- 2623859914624 -->
<g id="node15" class="node"><title>2623859914624</title>
<polygon fill="none" stroke="black" points="9612,-45 8929,-45 8929,-9 9612,-9 9612,-45"/>
<text text-anchor="middle" x="9270.5" y="-23.3" font-family="Times New Roman,serif" font-size="14.00">Processing QueryParametersEvent: BaseEvent{data=******, approach=EMBEDDED, step=AUTHENTICATE_PSU}</text>
</g>
<!-- 2623865151048 -->
<g id="node50" class="node"><title>2623865151048</title>
<ellipse fill="none" stroke="black" cx="9675" cy="-27" rx="27" ry="27"/>
</g>
<!-- 2623859914624&#45;&gt;2623865151048 -->
<g id="edge15" class="edge"><title>2623859914624&#45;&gt;2623865151048</title>
<path fill="none" stroke="black" d="M9612.43,-27C9621.76,-27 9630.3,-27 9637.86,-27"/>
<polygon fill="black" stroke="black" points="9637.87,-30.5001 9647.87,-27 9637.87,-23.5001 9637.87,-30.5001"/>
</g>
<!-- 2623859915464 -->
<g id="node16" class="node"><title>2623859915464</title>
<polygon fill="none" stroke="black" points="54605,-45 53894,-45 53894,-9 54605,-9 54605,-45"/>
<text text-anchor="middle" x="54249.5" y="-23.3" font-family="Times New Roman,serif" font-size="14.00">Processing TransactionsReceivedEvent: BaseEvent{data=******, approach=UNKNOWN, step=GET_TRANSACTIONS}</text>
</g>
<!-- 2623865282912 -->
<g id="node34" class="node"><title>2623865282912</title>
<ellipse fill="none" stroke="black" cx="54668" cy="-27" rx="27" ry="27"/>
</g>
<!-- 2623859915464&#45;&gt;2623865282912 -->
<g id="edge16" class="edge"><title>2623859915464&#45;&gt;2623865282912</title>
<path fill="none" stroke="black" d="M54605.1,-27C54614.5,-27 54623.1,-27 54630.7,-27"/>
<polygon fill="black" stroke="black" points="54630.8,-30.5001 54640.8,-27 54630.8,-23.5001 54630.8,-30.5001"/>
</g>
<!-- 2623859915688 -->
<g id="node17" class="node"><title>2623859915688</title>
<polygon fill="none" stroke="black" points="59572,-45 59429,-45 59429,-9 59572,-9 59572,-45"/>
<text text-anchor="middle" x="59500.5" y="-23.3" font-family="Times New Roman,serif" font-size="14.00">SCA status is finalised</text>
</g>
<!-- 2623865283360 -->
<g id="node37" class="node"><title>2623865283360</title>
<ellipse fill="none" stroke="black" cx="59635" cy="-27" rx="27" ry="27"/>
</g>
<!-- 2623859915688&#45;&gt;2623865283360 -->
<g id="edge17" class="edge"><title>2623859915688&#45;&gt;2623865283360</title>
<path fill="none" stroke="black" d="M59572,-27C59581,-27 59589.8,-27 59597.9,-27"/>
<polygon fill="black" stroke="black" points="59598,-30.5001 59608,-27 59598,-23.5001 59598,-30.5001"/>
</g>
<!-- 2623859914568 -->
<g id="node18" class="node"><title>2623859914568</title>
<polygon fill="none" stroke="black" points="8803,-45 8584,-45 8584,-9 8803,-9 8803,-45"/>
<text text-anchor="middle" x="8693.5" y="-23.3" font-family="Times New Roman,serif" font-size="14.00">create consent response status &#45; 200</text>
</g>
<!-- 2623859827264 -->
<g id="node42" class="node"><title>2623859827264</title>
<ellipse fill="none" stroke="black" cx="8866" cy="-27" rx="27" ry="27"/>
</g>
<!-- 2623859914568&#45;&gt;2623859827264 -->
<g id="edge18" class="edge"><title>2623859914568&#45;&gt;2623859827264</title>
<path fill="none" stroke="black" d="M8803.45,-27C8812.42,-27 8821.01,-27 8828.78,-27"/>
<polygon fill="black" stroke="black" points="8828.83,-30.5001 8838.83,-27 8828.83,-23.5001 8828.83,-30.5001"/>
</g>
<!-- 2623859915128 -->
<g id="node19" class="node"><title>2623859915128</title>
<polygon fill="none" stroke="black" points="26031,-45 25930,-45 25930,-9 26031,-9 26031,-45"/>
<text text-anchor="middle" x="25980.5" y="-23.3" font-family="Times New Roman,serif" font-size="14.00">get account list</text>
</g>
<!-- 2623865228928 -->
<g id="node35" class="node"><title>2623865228928</title>
<ellipse fill="none" stroke="black" cx="26094" cy="-27" rx="27" ry="27"/>
</g>
<!-- 2623859915128&#45;&gt;2623865228928 -->
<g id="edge19" class="edge"><title>2623859915128&#45;&gt;2623865228928</title>
<path fill="none" stroke="black" d="M26031.1,-27C26039.7,-27 26048.6,-27 26056.8,-27"/>
<polygon fill="black" stroke="black" points="26056.8,-30.5001 26066.8,-27 26056.8,-23.5001 26056.8,-30.5001"/>
</g>
<!-- 2623859915240 -->
<g id="node20" class="node"><title>2623859915240</title>
<polygon fill="none" stroke="black" points="29630,-45 29407,-45 29407,-9 29630,-9 29630,-45"/>
<text text-anchor="middle" x="29518.5" y="-23.3" font-family="Times New Roman,serif" font-size="14.00">get account list response status &#45; 200</text>
</g>
<!-- 2623865229152 -->
<g id="node48" class="node"><title>2623865229152</title>
<ellipse fill="none" stroke="black" cx="29693" cy="-27" rx="27" ry="27"/>
</g>
<!-- 2623859915240&#45;&gt;2623865229152 -->
<g id="edge20" class="edge"><title>2623859915240&#45;&gt;2623865229152</title>
<path fill="none" stroke="black" d="M29630.2,-27C29639.2,-27 29647.9,-27 29655.7,-27"/>
<polygon fill="black" stroke="black" points="29655.7,-30.5001 29665.7,-27 29655.7,-23.5001 29655.7,-30.5001"/>
</g>
<!-- 2623859915296 -->
<g id="node21" class="node"><title>2623859915296</title>
<polygon fill="none" stroke="black" points="29873,-45 29756,-45 29756,-9 29873,-9 29873,-45"/>
<text text-anchor="middle" x="29814.5" y="-23.3" font-family="Times New Roman,serif" font-size="14.00">get transaction list</text>
</g>
<!-- 2623865229264 -->
<g id="node33" class="node"><title>2623865229264</title>
<ellipse fill="none" stroke="black" cx="29936" cy="-27" rx="27" ry="27"/>
</g>
<!-- 2623859915296&#45;&gt;2623865229264 -->
<g id="edge21" class="edge"><title>2623859915296&#45;&gt;2623865229264</title>
<path fill="none" stroke="black" d="M29873.1,-27C29881.9,-27 29890.6,-27 29898.7,-27"/>
<polygon fill="black" stroke="black" points="29898.9,-30.5001 29908.9,-27 29898.9,-23.5001 29898.9,-30.5001"/>
</g>
<!-- 2623859915408 -->
<g id="node22" class="node"><title>2623859915408</title>
<polygon fill="none" stroke="black" points="53768,-45 53529,-45 53529,-9 53768,-9 53768,-45"/>
<text text-anchor="middle" x="53648.5" y="-23.3" font-family="Times New Roman,serif" font-size="14.00">get transaction list response status &#45; 200</text>
</g>
<!-- 2623865282800 -->
<g id="node43" class="node"><title>2623865282800</title>
<ellipse fill="none" stroke="black" cx="53831" cy="-27" rx="27" ry="27"/>
</g>
<!-- 2623859915408&#45;&gt;2623865282800 -->
<g id="edge22" class="edge"><title>2623859915408&#45;&gt;2623865282800</title>
<path fill="none" stroke="black" d="M53768.1,-27C53777.2,-27 53785.9,-27 53793.7,-27"/>
<polygon fill="black" stroke="black" points="53793.8,-30.5001 53803.8,-27 53793.8,-23.5001 53793.8,-30.5001"/>
</g>
<!-- 2623859914176 -->
<g id="node23" class="node"><title>2623859914176</title>
<polygon fill="none" stroke="black" points="195,-45 90,-45 90,-9 195,-9 195,-45"/>
<text text-anchor="middle" x="142.5" y="-23.3" font-family="Times New Roman,serif" font-size="14.00">search ASPSPs</text>
</g>
<!-- 2623859758976 -->
<g id="node40" class="node"><title>2623859758976</title>
<ellipse fill="none" stroke="black" cx="258" cy="-27" rx="27" ry="27"/>
</g>
<!-- 2623859914176&#45;&gt;2623859758976 -->
<g id="edge48" class="edge"><title>2623859914176&#45;&gt;2623859758976</title>
<path fill="none" stroke="black" d="M195.268,-27C203.805,-27 212.493,-27 220.553,-27"/>
<polygon fill="black" stroke="black" points="220.719,-30.5001 230.719,-27 220.719,-23.5001 220.719,-30.5001"/>
</g>
<!-- 2623859914680 -->
<g id="node24" class="node"><title>2623859914680</title>
<polygon fill="none" stroke="black" points="10026,-45 9738,-45 9738,-9 10026,-9 10026,-45"/>
<text text-anchor="middle" x="9882" y="-23.3" font-family="Times New Roman,serif" font-size="14.00">update consent PSU data (PSU password stage)</text>
</g>
<!-- 2623865227920 -->
<g id="node31" class="node"><title>2623865227920</title>
<ellipse fill="none" stroke="black" cx="10089" cy="-27" rx="27" ry="27"/>
</g>
<!-- 2623859914680&#45;&gt;2623865227920 -->
<g id="edge50" class="edge"><title>2623859914680&#45;&gt;2623865227920</title>
<path fill="none" stroke="black" d="M10026.2,-27C10035.4,-27 10044.1,-27 10051.9,-27"/>
<polygon fill="black" stroke="black" points="10051.9,-30.5001 10061.9,-27 10051.9,-23.5001 10051.9,-30.5001"/>
</g>
<!-- 2623859914792 -->
<g id="node25" class="node"><title>2623859914792</title>
<polygon fill="none" stroke="black" points="14412,-45 14002,-45 14002,-9 14412,-9 14412,-45"/>
<text text-anchor="middle" x="14207" y="-23.3" font-family="Times New Roman,serif" font-size="14.00">update consent PSU data (PSU password stage) response status &#45; 200</text>
</g>
<!-- 2623865228256 -->
<g id="node30" class="node"><title>2623865228256</title>
<ellipse fill="none" stroke="black" cx="14475" cy="-27" rx="27" ry="27"/>
</g>
<!-- 2623859914792&#45;&gt;2623865228256 -->
<g id="edge51" class="edge"><title>2623859914792&#45;&gt;2623865228256</title>
<path fill="none" stroke="black" d="M14412.3,-27C14421.5,-27 14430.1,-27 14437.7,-27"/>
<polygon fill="black" stroke="black" points="14437.8,-30.5001 14447.8,-27 14437.8,-23.5001 14437.8,-30.5001"/>
</g>
<!-- 2623859914904 -->
<g id="node26" class="node"><title>2623859914904</title>
<polygon fill="none" stroke="black" points="18858,-45 18388,-45 18388,-9 18858,-9 18858,-45"/>
<text text-anchor="middle" x="18623" y="-23.3" font-family="Times New Roman,serif" font-size="14.00">update consent PSU data (selectPsuAuthenticationMethod) response status &#45; 200</text>
</g>
<!-- 2623865228480 -->
<g id="node41" class="node"><title>2623865228480</title>
<ellipse fill="none" stroke="black" cx="18921" cy="-27" rx="27" ry="27"/>
</g>
<!-- 2623859914904&#45;&gt;2623865228480 -->
<g id="edge52" class="edge"><title>2623859914904&#45;&gt;2623865228480</title>
<path fill="none" stroke="black" d="M18858.3,-27C18867.5,-27 18876,-27 18883.6,-27"/>
<polygon fill="black" stroke="black" points="18883.7,-30.5001 18893.7,-27 18883.7,-23.5001 18883.7,-30.5001"/>
</g>
<!-- 2623859914232 -->
<g id="node27" class="node"><title>2623859914232</title>
<ellipse fill="green" stroke="black" cx="27" cy="-27" rx="27" ry="27"/>
<text text-anchor="middle" x="27" y="-23.3" font-family="Times New Roman,serif" font-size="14.00">1</text>
</g>
<!-- 2623859914232&#45;&gt;2623859914176 -->
<g id="edge49" class="edge"><title>2623859914232&#45;&gt;2623859914176</title>
<path fill="none" stroke="black" d="M54.0392,-27C61.7426,-27 70.5263,-27 79.4866,-27"/>
<polygon fill="black" stroke="black" points="79.6299,-30.5001 89.6298,-27 79.6298,-23.5001 79.6299,-30.5001"/>
</g>
<!-- 2623859916248&#45;&gt;2623859914512 -->
<g id="edge23" class="edge"><title>2623859916248&#45;&gt;2623859914512</title>
<path fill="none" stroke="black" d="M2538.42,-27C2545.51,-27 2553.98,-27 2563.75,-27"/>
<polygon fill="black" stroke="black" points="2563.95,-30.5001 2573.95,-27 2563.95,-23.5001 2563.95,-30.5001"/>
</g>
<!-- 2623865228592&#45;&gt;2623859915016 -->
<g id="edge24" class="edge"><title>2623865228592&#45;&gt;2623859915016</title>
<path fill="none" stroke="black" d="M19664.1,-27C19671.2,-27 19679.8,-27 19689.6,-27"/>
<polygon fill="black" stroke="black" points="19689.9,-30.5001 19699.9,-27 19689.9,-23.5001 19689.9,-30.5001"/>
</g>
<!-- 2623865228256&#45;&gt;2623859914848 -->
<g id="edge25" class="edge"><title>2623865228256&#45;&gt;2623859914848</title>
<path fill="none" stroke="black" d="M14502.1,-27C14509.2,-27 14517.8,-27 14527.6,-27"/>
<polygon fill="black" stroke="black" points="14527.9,-30.5001 14537.9,-27 14527.9,-23.5001 14527.9,-30.5001"/>
</g>
<!-- 2623865227920&#45;&gt;2623859914736 -->
<g id="edge26" class="edge"><title>2623865227920&#45;&gt;2623859914736</title>
<path fill="none" stroke="black" d="M10116.1,-27C10123.2,-27 10131.8,-27 10141.6,-27"/>
<polygon fill="black" stroke="black" points="10141.9,-30.5001 10151.9,-27 10141.9,-23.5001 10141.9,-30.5001"/>
</g>
<!-- 2623865228704&#45;&gt;2623859915072 -->
<g id="edge27" class="edge"><title>2623865228704&#45;&gt;2623859915072</title>
<path fill="none" stroke="black" d="M23514.2,-27C23521.4,-27 23529.9,-27 23539.6,-27"/>
<polygon fill="black" stroke="black" points="23539.8,-30.5001 23549.8,-27 23539.8,-23.5001 23539.8,-30.5001"/>
</g>
<!-- 2623865229264&#45;&gt;2623859915352 -->
<g id="edge28" class="edge"><title>2623865229264&#45;&gt;2623859915352</title>
<path fill="none" stroke="black" d="M29963.4,-27C29970.4,-27 29978.8,-27 29988.5,-27"/>
<polygon fill="black" stroke="black" points="29988.7,-30.5001 29998.7,-27 29988.7,-23.5001 29988.7,-30.5001"/>
</g>
<!-- 2623865282912&#45;&gt;2623859915520 -->
<g id="edge29" class="edge"><title>2623865282912&#45;&gt;2623859915520</title>
<path fill="none" stroke="black" d="M54695,-27C54702.2,-27 54710.7,-27 54720.5,-27"/>
<polygon fill="black" stroke="black" points="54720.7,-30.5001 54730.7,-27 54720.7,-23.5001 54720.7,-30.5001"/>
</g>
<!-- 2623865228928&#45;&gt;2623859915184 -->
<g id="edge30" class="edge"><title>2623865228928&#45;&gt;2623859915184</title>
<path fill="none" stroke="black" d="M26121.2,-27C26128.3,-27 26136.7,-27 26146.5,-27"/>
<polygon fill="black" stroke="black" points="26146.6,-30.5001 26156.6,-27 26146.6,-23.5001 26146.6,-30.5001"/>
</g>
<!-- 2623865283136&#45;&gt;2623859915632 -->
<g id="edge31" class="edge"><title>2623865283136&#45;&gt;2623859915632</title>
<path fill="none" stroke="black" d="M57253.1,-27C57260.3,-27 57268.9,-27 57278.7,-27"/>
<polygon fill="black" stroke="black" points="57279,-30.5001 57289,-27 57279,-23.5001 57279,-30.5001"/>
</g>
<!-- 2623865283360&#45;&gt;2623859915744 -->
<g id="edge32" class="edge"><title>2623865283360&#45;&gt;2623859915744</title>
<path fill="none" stroke="black" d="M59662.1,-27C59669.3,-27 59677.9,-27 59687.6,-27"/>
<polygon fill="black" stroke="black" points="59687.8,-30.5001 59697.8,-27 59687.8,-23.5001 59687.8,-30.5001"/>
</g>
<!-- 2623865283024&#45;&gt;2623859915576 -->
<g id="edge33" class="edge"><title>2623865283024&#45;&gt;2623859915576</title>
<path fill="none" stroke="black" d="M56985.1,-27C56992.7,-27 57001.6,-27 57010.8,-27"/>
<polygon fill="black" stroke="black" points="57010.9,-30.5001 57020.9,-27 57010.9,-23.5001 57010.9,-30.5001"/>
</g>
<!-- 2623865283472&#45;&gt;2623859915800 -->
<g id="edge34" class="edge"><title>2623865283472&#45;&gt;2623859915800</title>
<path fill="none" stroke="black" d="M61262.2,-27C61269.7,-27 61278.5,-27 61287.7,-27"/>
<polygon fill="black" stroke="black" points="61287.8,-30.5001 61297.8,-27 61287.8,-23.5001 61287.8,-30.5001"/>
</g>
<!-- 2623859758976&#45;&gt;2623859914456 -->
<g id="edge35" class="edge"><title>2623859758976&#45;&gt;2623859914456</title>
<path fill="none" stroke="black" d="M285.141,-27C292.313,-27 300.858,-27 310.647,-27"/>
<polygon fill="black" stroke="black" points="310.844,-30.5001 320.844,-27 310.844,-23.5001 310.844,-30.5001"/>
</g>
<!-- 2623865228480&#45;&gt;2623859914960 -->
<g id="edge36" class="edge"><title>2623865228480&#45;&gt;2623859914960</title>
<path fill="none" stroke="black" d="M18948.2,-27C18955.5,-27 18964.2,-27 18973.9,-27"/>
<polygon fill="black" stroke="black" points="18973.9,-30.5001 18983.9,-27 18973.9,-23.5001 18973.9,-30.5001"/>
</g>
<!-- 2623859827264&#45;&gt;2623859914624 -->
<g id="edge37" class="edge"><title>2623859827264&#45;&gt;2623859914624</title>
<path fill="none" stroke="black" d="M8893.1,-27C8900.42,-27 8909.06,-27 8918.78,-27"/>
<polygon fill="black" stroke="black" points="8918.84,-30.5001 8928.84,-27 8918.84,-23.5001 8918.84,-30.5001"/>
</g>
<!-- 2623865282800&#45;&gt;2623859915464 -->
<g id="edge38" class="edge"><title>2623865282800&#45;&gt;2623859915464</title>
<path fill="none" stroke="black" d="M53858.1,-27C53865.3,-27 53873.9,-27 53883.6,-27"/>
<polygon fill="black" stroke="black" points="53883.6,-30.5001 53893.6,-27 53883.6,-23.5001 53883.6,-30.5001"/>
</g>
<!-- 2623865283248&#45;&gt;2623859915688 -->
<g id="edge39" class="edge"><title>2623865283248&#45;&gt;2623859915688</title>
<path fill="none" stroke="black" d="M59393.2,-27C59400.8,-27 59409.6,-27 59418.8,-27"/>
<polygon fill="black" stroke="black" points="59418.8,-30.5001 59428.8,-27 59418.8,-23.5001 59418.8,-30.5001"/>
</g>
<!-- 2623859916472&#45;&gt;2623859914568 -->
<g id="edge40" class="edge"><title>2623859916472&#45;&gt;2623859914568</title>
<path fill="none" stroke="black" d="M8548.27,-27C8555.68,-27 8564.25,-27 8573.45,-27"/>
<polygon fill="black" stroke="black" points="8573.66,-30.5001 8583.66,-27 8573.66,-23.5001 8573.66,-30.5001"/>
</g>
<!-- 2623865228816&#45;&gt;2623859915128 -->
<g id="edge41" class="edge"><title>2623865228816&#45;&gt;2623859915128</title>
<path fill="none" stroke="black" d="M25894.1,-27C25901.9,-27 25910.7,-27 25919.7,-27"/>
<polygon fill="black" stroke="black" points="25919.9,-30.5001 25929.9,-27 25919.9,-23.5001 25919.9,-30.5001"/>
</g>
<!-- 2623865229040&#45;&gt;2623859915240 -->
<g id="edge42" class="edge"><title>2623865229040&#45;&gt;2623859915240</title>
<path fill="none" stroke="black" d="M29371.2,-27C29378.8,-27 29387.5,-27 29397,-27"/>
<polygon fill="black" stroke="black" points="29397,-30.5001 29407,-27 29397,-23.5001 29397,-30.5001"/>
</g>
<!-- 2623865229152&#45;&gt;2623859915296 -->
<g id="edge43" class="edge"><title>2623865229152&#45;&gt;2623859915296</title>
<path fill="none" stroke="black" d="M29720.2,-27C29727.9,-27 29736.7,-27 29745.7,-27"/>
<polygon fill="black" stroke="black" points="29746,-30.5001 29756,-27 29746,-23.5001 29746,-30.5001"/>
</g>
<!-- 2623865282688&#45;&gt;2623859915408 -->
<g id="edge44" class="edge"><title>2623865282688&#45;&gt;2623859915408</title>
<path fill="none" stroke="black" d="M53493.2,-27C53500.6,-27 53509.2,-27 53518.5,-27"/>
<polygon fill="black" stroke="black" points="53518.7,-30.5001 53528.7,-27 53518.7,-23.5001 53518.7,-30.5001"/>
</g>
<!-- 2623865151048&#45;&gt;2623859914680 -->
<g id="edge45" class="edge"><title>2623865151048&#45;&gt;2623859914680</title>
<path fill="none" stroke="black" d="M9702.38,-27C9709.69,-27 9718.17,-27 9727.41,-27"/>
<polygon fill="black" stroke="black" points="9727.69,-30.5001 9737.69,-27 9727.69,-23.5001 9727.69,-30.5001"/>
</g>
<!-- 2623865228144&#45;&gt;2623859914792 -->
<g id="edge46" class="edge"><title>2623865228144&#45;&gt;2623859914792</title>
<path fill="none" stroke="black" d="M13966.5,-27C13973.8,-27 13982.3,-27 13991.8,-27"/>
<polygon fill="black" stroke="black" points="13991.9,-30.5001 14001.9,-27 13991.9,-23.5001 13991.9,-30.5001"/>
</g>
<!-- 2623865228368&#45;&gt;2623859914904 -->
<g id="edge47" class="edge"><title>2623865228368&#45;&gt;2623859914904</title>
<path fill="none" stroke="black" d="M18352,-27C18359.4,-27 18368.1,-27 18377.8,-27"/>
<polygon fill="black" stroke="black" points="18377.8,-30.5001 18387.8,-27 18377.8,-23.5001 18377.8,-30.5001"/>
</g>
</g>
</svg>
