<?xml version="1.0" encoding="UTF-8" standalone="no"?>
<!DOCTYPE svg PUBLIC "-//W3C//DTD SVG 1.1//EN"
 "http://www.w3.org/Graphics/SVG/1.1/DTD/svg11.dtd">
<!-- Generated by graphviz version 2.38.0 (20140413.2041)
 -->
<!-- Title: G Pages: 1 -->
<svg width="5828pt" height="1784pt"
 viewBox="0.00 0.00 5828.00 1784.00" xmlns="http://www.w3.org/2000/svg" xmlns:xlink="http://www.w3.org/1999/xlink">
<g id="graph0" class="graph" transform="scale(1 1) rotate(0) translate(4 1780)">
<title>G</title>
<!-- create a new session -->
<g id="node1" class="node"><title>create a new session</title>
<polygon fill="#00ffff" stroke="black" points="5820,-1689 5411,-1689 5411,-1653 5820,-1653 5820,-1689"/>
<text text-anchor="middle" x="5615.5" y="-1667.3" font-family="Times New Roman,serif" font-size="14.00">create a new session: 6B9F5BF8302B1C74AAAD36F6DB2F381D (1)</text>
</g>
<!-- search ASPSPs -->
<g id="node2" class="node"><title>search ASPSPs</title>
<polygon fill="#0cf2f2" stroke="black" points="4293,-1602 4168,-1602 4168,-1566 4293,-1566 4293,-1602"/>
<text text-anchor="middle" x="4230.5" y="-1580.3" font-family="Times New Roman,serif" font-size="14.00">search ASPSPs (4)</text>
</g>
<!-- create a new session&#45;&gt;search ASPSPs -->
<g id="edge1" class="edge"><title>create a new session&#45;&gt;search ASPSPs</title>
<path fill="none" stroke="#000000" stroke-width="1.06301" d="M5410.77,-1657.44C5095.98,-1638.12 4508.03,-1602.03 4303.14,-1589.46"/>
<polygon fill="#000000" stroke="#000000" stroke-width="1.06301" points="4303.29,-1585.96 4293.1,-1588.84 4302.87,-1592.95 4303.29,-1585.96"/>
<text text-anchor="middle" x="5010" y="-1623.8" font-family="Times New Roman,serif" font-size="14.00" fill="#000000">1</text>
</g>
<!-- search ASPSPs response status &#45; 200 -->
<g id="node3" class="node"><title>search ASPSPs response status &#45; 200</title>
<polygon fill="#0cf2f2" stroke="black" points="4309,-1515 4062,-1515 4062,-1479 4309,-1479 4309,-1515"/>
<text text-anchor="middle" x="4185.5" y="-1493.3" font-family="Times New Roman,serif" font-size="14.00">search ASPSPs response status &#45; 200 (4)</text>
</g>
<!-- search ASPSPs&#45;&gt;search ASPSPs response status &#45; 200 -->
<g id="edge2" class="edge"><title>search ASPSPs&#45;&gt;search ASPSPs response status &#45; 200</title>
<path fill="none" stroke="#000000" stroke-width="1.14631" d="M4221.39,-1565.8C4215.05,-1553.82 4206.47,-1537.62 4199.29,-1524.06"/>
<polygon fill="#000000" stroke="#000000" stroke-width="1.14631" points="4202.37,-1522.38 4194.59,-1515.18 4196.18,-1525.65 4202.37,-1522.38"/>
<text text-anchor="middle" x="4215" y="-1536.8" font-family="Times New Roman,serif" font-size="14.00" fill="#000000">4</text>
</g>
<!-- Processing AspspFoundEvent -->
<g id="node4" class="node"><title>Processing AspspFoundEvent</title>
<polygon fill="#0cf2f2" stroke="black" points="4412,-1428 2265,-1428 2265,-1392 4412,-1392 4412,-1428"/>
<text text-anchor="middle" x="3338.5" y="-1406.3" font-family="Times New Roman,serif" font-size="14.00">Processing AspspFoundEvent: AspspFoundEvent{data=AspspTO{id=&#39;53c47f54&#45;b9a4&#45;465a&#45;8f77&#45;bc6cd5f0cf46&#39;, name=&#39;adorsys xs2a&#39;, bic=&#39;ADORSYS&#39;, bankCode=&#39;99999999&#39;, url=&#39;https://amos&#45;modelbank&#45;xs2a.cloud.adorsys.de&#39;, adapterId=&#39;adorsys&#45;integ&#45;adapter&#39;, idpUrl=&#39;null&#39;, scaApproaches=null, paginationId=&#39;0:1.0&#39;}, approach=UNKNOWN, step=ASPSP_LOOKUP} (4)</text>
</g>
<!-- search ASPSPs response status &#45; 200&#45;&gt;Processing AspspFoundEvent -->
<g id="edge3" class="edge"><title>search ASPSPs response status &#45; 200&#45;&gt;Processing AspspFoundEvent</title>
<path fill="none" stroke="#000000" stroke-width="1.14631" d="M4061.89,-1483.59C3918.76,-1469.23 3681.77,-1445.45 3518.26,-1429.04"/>
<polygon fill="#000000" stroke="#000000" stroke-width="1.14631" points="3518.39,-1425.54 3508.09,-1428.02 3517.69,-1432.5 3518.39,-1425.54"/>
<text text-anchor="middle" x="3817" y="-1449.8" font-family="Times New Roman,serif" font-size="14.00" fill="#000000">4</text>
</g>
<!-- &#45;&#45;&gt; POST https -->
<g id="node5" class="node"><title>&#45;&#45;&gt; POST https</title>
<polygon fill="#00ffff" stroke="black" points="5663,-1341 0,-1341 0,-1305 5663,-1305 5663,-1341"/>
<text text-anchor="middle" x="2831.5" y="-1319.3" font-family="Times New Roman,serif" font-size="14.00">&#45;&#45;&gt; POST https://amos&#45;modelbank&#45;xs2a.cloud.adorsys.de/v1/consents?limit=10&amp;balanceTypes=interimBooked HTTP/1.1\n	&#45;&#45;&gt; Correlation&#45;ID: 6B9F5BF8302B1C74AAAD36F6DB2F381D\n	&#45;&#45;&gt; Accept: application/json\n	&#45;&#45;&gt; TPP&#45;Nok&#45;Redirect&#45;URI: https://amos&#45;modelbank&#45;xs2a&#45;adapter&#45;ui&#45;service.cloud.adorsys.de/nok&#45;redirect\n	&#45;&#45;&gt; X&#45;Request&#45;ID: 60ba3314&#45;0837&#45;462d&#45;b35c&#45;85e393dc1cd4\n	&#45;&#45;&gt; TPP&#45;Redirect&#45;Preferred: true\n	&#45;&#45;&gt; X&#45;GTW&#45;ASPSP&#45;ID: 53c47f54&#45;b9a4&#45;465a&#45;8f77&#45;bc6cd5f0cf46\n	&#45;&#45;&gt; PSU&#45;ID: ******\n	&#45;&#45;&gt; PSU&#45;IP&#45;Address: 0.0.0.0\n	&#45;&#45;&gt; TPP&#45;Redirect&#45;URI: https://amos&#45;modelbank&#45;xs2a&#45;adapter&#45;ui&#45;service.cloud.adorsys.de/redirect\n	&#45;&#45;&gt;\n	&#45;&#45;&gt; Request body [application/json; charset=UTF&#45;8]: {&quot;access&quot;:{&quot;accounts&quot;:[],&quot;balances&quot;:[],&quot;transactions&quot;:[],&quot;availableAccounts&quot;:&quot;******&quot;,&quot;availableAccountsWithBalance&quot;:&quot;******&quot;,&quot;allPsd2&quot;:&quot;******&quot;},&quot;recurringIndicator&quot;:true,&quot;validUntil&quot;:&quot;2020&#45;06&#45;10&quot;,&quot;frequencyPerDay&quot;:4,&quot;combinedServiceIndicator&quot;:false}\n	&#45;&#45;&gt; (1)</text>
</g>
<!-- Processing AspspFoundEvent&#45;&gt;&#45;&#45;&gt; POST https -->
<g id="edge4" class="edge"><title>Processing AspspFoundEvent&#45;&gt;&#45;&#45;&gt; POST https</title>
<path fill="none" stroke="#000000" stroke-width="1.06301" d="M3236.82,-1391.95C3151.78,-1377.7 3030.67,-1357.39 2943,-1342.69"/>
<polygon fill="#000000" stroke="#000000" stroke-width="1.06301" points="2943.46,-1339.22 2933.02,-1341.02 2942.3,-1346.12 2943.46,-1339.22"/>
<text text-anchor="middle" x="3119" y="-1362.8" font-family="Times New Roman,serif" font-size="14.00" fill="#000000">1</text>
</g>
<!-- &lt;&#45;&#45; HTTP/1.1 201 \\n	&lt;&#45;&#45; aspsp&#45;sca&#45;approach -->
<g id="node6" class="node"><title>&lt;&#45;&#45; HTTP/1.1 201 \\n	&lt;&#45;&#45; aspsp&#45;sca&#45;approach</title>
<polygon fill="#00ffff" stroke="black" points="5438,-1254 1575,-1254 1575,-1218 5438,-1218 5438,-1254"/>
<text text-anchor="middle" x="3506.5" y="-1232.3" font-family="Times New Roman,serif" font-size="14.00">&lt;&#45;&#45; HTTP/1.1 201 \n	&lt;&#45;&#45; aspsp&#45;sca&#45;approach: REDIRECT\n	&lt;&#45;&#45; x&#45;request&#45;id: 60ba3314&#45;0837&#45;462d&#45;b35c&#45;85e393dc1cd4\n	&lt;&#45;&#45; date: Tue, 09 Jun 2020 18:07:52 GMT\n	&lt;&#45;&#45; content&#45;length: 1128\n	&lt;&#45;&#45; vary: Access&#45;Control&#45;Request&#45;Headers\n	&lt;&#45;&#45; x&#45;robots&#45;tag: none\n	&lt;&#45;&#45; location: https://amos&#45;modelbank&#45;xs2a.cloud.adorsys.de/v1/consents/******\n	&lt;&#45;&#45; content&#45;type: application/json\n	&lt;&#45;&#45; aspsp&#45;notification&#45;support: false\n	&lt;&#45;&#45;\n	&lt;&#45;&#45; Response body [application/json]: {&quot;consentStatus&quot;:&quot;******&quot;,&quot;consentId&quot;:&quot;******&quot;,&quot;_links&quot;:{&quot;scaRedirect&quot;:{&quot;href&quot;:&quot;******&quot;},&quot;self&quot;:{&quot;href&quot;:&quot;******&quot;},&quot;status&quot;:{&quot;href&quot;:&quot;******&quot;},&quot;scaStatus&quot;:{&quot;href&quot;:&quot;******&quot;}}}\n	&lt;&#45;&#45; (1)</text>
</g>
<!-- &#45;&#45;&gt; POST https&#45;&gt;&lt;&#45;&#45; HTTP/1.1 201 \\n	&lt;&#45;&#45; aspsp&#45;sca&#45;approach -->
<g id="edge5" class="edge"><title>&#45;&#45;&gt; POST https&#45;&gt;&lt;&#45;&#45; HTTP/1.1 201 \\n	&lt;&#45;&#45; aspsp&#45;sca&#45;approach</title>
<path fill="none" stroke="#000000" stroke-width="1.06301" d="M2966.88,-1304.95C3081.12,-1290.57 3244.29,-1270.02 3361.24,-1255.29"/>
<polygon fill="#000000" stroke="#000000" stroke-width="1.06301" points="3361.86,-1258.74 3371.35,-1254.02 3360.99,-1251.8 3361.86,-1258.74"/>
<text text-anchor="middle" x="3213" y="-1275.8" font-family="Times New Roman,serif" font-size="14.00" fill="#000000">1</text>
</g>
<!-- Processing ConsentCreatedEvent -->
<g id="node7" class="node"><title>Processing ConsentCreatedEvent</title>
<polygon fill="#0cf2f2" stroke="black" points="3847,-1167 3166,-1167 3166,-1131 3847,-1131 3847,-1167"/>
<text text-anchor="middle" x="3506.5" y="-1145.3" font-family="Times New Roman,serif" font-size="14.00">Processing ConsentCreatedEvent: BaseEvent{data=******, approach=UNKNOWN, step=CREATE_CONSENT} (4)</text>
</g>
<!-- &lt;&#45;&#45; HTTP/1.1 201 \\n	&lt;&#45;&#45; aspsp&#45;sca&#45;approach&#45;&gt;Processing ConsentCreatedEvent -->
<g id="edge6" class="edge"><title>&lt;&#45;&#45; HTTP/1.1 201 \\n	&lt;&#45;&#45; aspsp&#45;sca&#45;approach&#45;&gt;Processing ConsentCreatedEvent</title>
<path fill="none" stroke="#000000" stroke-width="1.06301" d="M3506.5,-1217.8C3506.5,-1206.16 3506.5,-1190.55 3506.5,-1177.24"/>
<polygon fill="#000000" stroke="#000000" stroke-width="1.06301" points="3510,-1177.18 3506.5,-1167.18 3503,-1177.18 3510,-1177.18"/>
<text text-anchor="middle" x="3510" y="-1188.8" font-family="Times New Roman,serif" font-size="14.00" fill="#000000">1</text>
</g>
<!-- create consent response status &#45; 200 -->
<g id="node8" class="node"><title>create consent response status &#45; 200</title>
<polygon fill="#0cf2f2" stroke="black" points="3771,-1080 3532,-1080 3532,-1044 3771,-1044 3771,-1080"/>
<text text-anchor="middle" x="3651.5" y="-1058.3" font-family="Times New Roman,serif" font-size="14.00">create consent response status &#45; 200 (4)</text>
</g>
<!-- &lt;&#45;&#45; HTTP/1.1 201 \\n	&lt;&#45;&#45; aspsp&#45;sca&#45;approach&#45;&gt;create consent response status &#45; 200 -->
<g id="edge15" class="edge"><title>&lt;&#45;&#45; HTTP/1.1 201 \\n	&lt;&#45;&#45; aspsp&#45;sca&#45;approach&#45;&gt;create consent response status &#45; 200</title>
<path fill="none" stroke="#000000" stroke-width="1.06301" d="M3706.49,-1217.97C3772.77,-1207.87 3834.94,-1191.95 3855.5,-1167 3890.06,-1125.05 3829.51,-1098.24 3765.59,-1082.37"/>
<polygon fill="#000000" stroke="#000000" stroke-width="1.06301" points="3766.27,-1078.94 3755.73,-1080.01 3764.64,-1085.74 3766.27,-1078.94"/>
<text text-anchor="middle" x="3870" y="-1145.3" font-family="Times New Roman,serif" font-size="14.00" fill="#000000">1</text>
</g>
<!-- Processing ConsentCreatedEvent&#45;&gt;create consent response status &#45; 200 -->
<g id="edge7" class="edge"><title>Processing ConsentCreatedEvent&#45;&gt;create consent response status &#45; 200</title>
<path fill="none" stroke="#000000" stroke-width="1.09987" d="M3539.13,-1130.96C3549.55,-1125.38 3561.08,-1119.05 3571.5,-1113 3586.37,-1104.36 3602.5,-1094.4 3616.36,-1085.65"/>
<polygon fill="#000000" stroke="#000000" stroke-width="1.09987" points="3618.53,-1088.42 3625.1,-1080.1 3614.78,-1082.51 3618.53,-1088.42"/>
<text text-anchor="middle" x="3600" y="-1101.8" font-family="Times New Roman,serif" font-size="14.00" fill="#000000">2</text>
</g>
<!-- Redirect to online banking page -->
<g id="node9" class="node"><title>Redirect to online banking page</title>
<polygon fill="#0cf2f2" stroke="black" points="3649.5,-993 3437.5,-993 3437.5,-957 3649.5,-957 3649.5,-993"/>
<text text-anchor="middle" x="3543.5" y="-971.3" font-family="Times New Roman,serif" font-size="14.00">Redirect to online banking page (4)</text>
</g>
<!-- Processing ConsentCreatedEvent&#45;&gt;Redirect to online banking page -->
<g id="edge8" class="edge"><title>Processing ConsentCreatedEvent&#45;&gt;Redirect to online banking page</title>
<path fill="none" stroke="#000000" stroke-width="1.09987" d="M3506.4,-1130.81C3506.64,-1109.98 3508.22,-1073.94 3515.5,-1044 3518.95,-1029.81 3524.91,-1014.72 3530.45,-1002.37"/>
<polygon fill="#000000" stroke="#000000" stroke-width="1.09987" points="3533.7,-1003.66 3534.74,-993.121 3527.35,-1000.72 3533.7,-1003.66"/>
<text text-anchor="middle" x="3519" y="-1058.3" font-family="Times New Roman,serif" font-size="14.00" fill="#000000">2</text>
</g>
<!-- create consent response status &#45; 200&#45;&gt;Processing ConsentCreatedEvent -->
<g id="edge10" class="edge"><title>create consent response status &#45; 200&#45;&gt;Processing ConsentCreatedEvent</title>
<path fill="none" stroke="#000000" stroke-width="1.09987" d="M3599.82,-1080.14C3587.52,-1085.14 3574.72,-1091.13 3563.5,-1098 3551.81,-1105.16 3540.19,-1114.77 3530.53,-1123.65"/>
<polygon fill="#000000" stroke="#000000" stroke-width="1.09987" points="3528.09,-1121.14 3523.23,-1130.56 3532.9,-1126.22 3528.09,-1121.14"/>
<text text-anchor="middle" x="3567" y="-1101.8" font-family="Times New Roman,serif" font-size="14.00" fill="#000000">2</text>
</g>
<!-- create consent response status &#45; 200&#45;&gt;Redirect to online banking page -->
<g id="edge9" class="edge"><title>create consent response status &#45; 200&#45;&gt;Redirect to online banking page</title>
<path fill="none" stroke="#000000" stroke-width="1.06301" d="M3629.64,-1043.8C3613.54,-1031.13 3591.44,-1013.73 3573.66,-999.738"/>
<polygon fill="#000000" stroke="#000000" stroke-width="1.06301" points="3575.35,-996.61 3565.32,-993.175 3571.02,-1002.11 3575.35,-996.61"/>
<text text-anchor="middle" x="3608" y="-1014.8" font-family="Times New Roman,serif" font-size="14.00" fill="#000000">1</text>
</g>
<!-- Processing RedirectPsuEvent -->
<g id="node10" class="node"><title>Processing RedirectPsuEvent</title>
<polygon fill="#0cf2f2" stroke="black" points="4102,-906 3471,-906 3471,-870 4102,-870 4102,-906"/>
<text text-anchor="middle" x="3786.5" y="-884.3" font-family="Times New Roman,serif" font-size="14.00">Processing RedirectPsuEvent: BaseEvent{data=******, approach=REDIRECT, step=PSU_REDIRECT} (4)</text>
</g>
<!-- create consent response status &#45; 200&#45;&gt;Processing RedirectPsuEvent -->
<g id="edge11" class="edge"><title>create consent response status &#45; 200&#45;&gt;Processing RedirectPsuEvent</title>
<path fill="none" stroke="#000000" stroke-width="1.06301" d="M3664.94,-1043.88C3688.89,-1013.36 3739.07,-949.43 3766.88,-913.993"/>
<polygon fill="#000000" stroke="#000000" stroke-width="1.06301" points="3769.7,-916.079 3773.12,-906.052 3764.19,-911.757 3769.7,-916.079"/>
<text text-anchor="middle" x="3736" y="-971.3" font-family="Times New Roman,serif" font-size="14.00" fill="#000000">1</text>
</g>
<!-- Redirect to online banking page&#45;&gt;Processing RedirectPsuEvent -->
<g id="edge12" class="edge"><title>Redirect to online banking page&#45;&gt;Processing RedirectPsuEvent</title>
<path fill="none" stroke="#000000" stroke-width="1.12603" d="M3592.38,-956.901C3631.52,-943.212 3686.53,-923.971 3728,-909.464"/>
<polygon fill="#000000" stroke="#000000" stroke-width="1.12603" points="3729.41,-912.677 3737.7,-906.071 3727.1,-906.07 3729.41,-912.677"/>
<text text-anchor="middle" x="3684" y="-927.8" font-family="Times New Roman,serif" font-size="14.00" fill="#000000">3</text>
</g>
<!-- end_0 -->
<g id="node27" class="node"><title>end_0</title>
<ellipse fill="#ffa500" stroke="#000000" cx="3488.5" cy="-18" rx="27" ry="18"/>
<text text-anchor="middle" x="3488.5" y="-16.1" font-family="Times New Roman,serif" font-size="8.00" fill="#ffa500">@@E</text>
</g>
<!-- Redirect to online banking page&#45;&gt;end_0 -->
<g id="edge34" class="edge"><title>Redirect to online banking page&#45;&gt;end_0</title>
<path fill="none" stroke="#000000" stroke-width="1.06301" d="M3499.49,-956.927C3472.28,-943.178 3442.5,-920.856 3442.5,-889 3442.5,-889 3442.5,-889 3442.5,-104 3442.5,-80.7095 3456.02,-57.6866 3468.41,-41.4882"/>
<polygon fill="#000000" stroke="#000000" stroke-width="1.06301" points="3471.15,-43.6579 3474.7,-33.6743 3465.7,-39.2671 3471.15,-43.6579"/>
<text text-anchor="middle" x="3446" y="-492.8" font-family="Times New Roman,serif" font-size="14.00" fill="#000000">1</text>
</g>
<!-- Processing RedirectPsuEvent&#45;&gt;create a new session -->
<g id="edge13" class="edge"><title>Processing RedirectPsuEvent&#45;&gt;create a new session</title>
<path fill="none" stroke="#000000" stroke-width="1.06301" d="M4102.14,-895.22C4643.53,-906.944 5691.5,-934.713 5691.5,-974 5691.5,-1585 5691.5,-1585 5691.5,-1585 5691.5,-1610.46 5672.31,-1631.8 5653.22,-1646.72"/>
<polygon fill="#000000" stroke="#000000" stroke-width="1.06301" points="5651.07,-1643.96 5645.1,-1652.72 5655.22,-1649.59 5651.07,-1643.96"/>
<text text-anchor="middle" x="5695" y="-1275.8" font-family="Times New Roman,serif" font-size="14.00" fill="#000000">1</text>
</g>
<!-- redirect from ASPSP -->
<g id="node11" class="node"><title>redirect from ASPSP</title>
<polygon fill="#00ffff" stroke="black" points="4478,-819 4323,-819 4323,-783 4478,-783 4478,-819"/>
<text text-anchor="middle" x="4400.5" y="-797.3" font-family="Times New Roman,serif" font-size="14.00">redirect from ASPSP (1)</text>
</g>
<!-- Processing RedirectPsuEvent&#45;&gt;redirect from ASPSP -->
<g id="edge14" class="edge"><title>Processing RedirectPsuEvent&#45;&gt;redirect from ASPSP</title>
<path fill="none" stroke="#000000" stroke-width="1.06301" d="M3909.64,-869.952C4029.02,-853.426 4207.12,-828.771 4312.76,-814.146"/>
<polygon fill="#000000" stroke="#000000" stroke-width="1.06301" points="4313.33,-817.601 4322.76,-812.763 4312.37,-810.667 4313.33,-817.601"/>
<text text-anchor="middle" x="4134" y="-840.8" font-family="Times New Roman,serif" font-size="14.00" fill="#000000">1</text>
</g>
<!-- Processing RedirectPsuEvent&#45;&gt;end_0 -->
<g id="edge33" class="edge"><title>Processing RedirectPsuEvent&#45;&gt;end_0</title>
<path fill="none" stroke="#000000" stroke-width="1.06301" d="M3635.32,-869.951C3561.55,-857.265 3488.5,-836.095 3488.5,-802 3488.5,-802 3488.5,-802 3488.5,-104 3488.5,-84.7526 3488.5,-63.0535 3488.5,-46.3973"/>
<polygon fill="#000000" stroke="#000000" stroke-width="1.06301" points="3492,-46.2564 3488.5,-36.2564 3485,-46.2565 3492,-46.2564"/>
<text text-anchor="middle" x="3492" y="-449.3" font-family="Times New Roman,serif" font-size="14.00" fill="#000000">1</text>
</g>
<!-- show transactions page -->
<g id="node12" class="node"><title>show transactions page</title>
<polygon fill="#00ffff" stroke="black" points="4637,-732 4470,-732 4470,-696 4637,-696 4637,-732"/>
<text text-anchor="middle" x="4553.5" y="-710.3" font-family="Times New Roman,serif" font-size="14.00">show transactions page (1)</text>
</g>
<!-- redirect from ASPSP&#45;&gt;show transactions page -->
<g id="edge16" class="edge"><title>redirect from ASPSP&#45;&gt;show transactions page</title>
<path fill="none" stroke="#000000" stroke-width="1.06301" d="M4431.46,-782.799C4455.29,-769.564 4488.37,-751.182 4514.09,-736.897"/>
<polygon fill="#000000" stroke="#000000" stroke-width="1.06301" points="4515.8,-739.946 4522.85,-732.03 4512.4,-733.827 4515.8,-739.946"/>
<text text-anchor="middle" x="4490" y="-753.8" font-family="Times New Roman,serif" font-size="14.00" fill="#000000">1</text>
</g>
<!-- Load transactions from ASPSP -->
<g id="node13" class="node"><title>Load transactions from ASPSP</title>
<polygon fill="#00ffff" stroke="black" points="4699,-645 4486,-645 4486,-609 4699,-609 4699,-645"/>
<text text-anchor="middle" x="4592.5" y="-623.3" font-family="Times New Roman,serif" font-size="14.00">Load transactions from ASPSP (1)</text>
</g>
<!-- show transactions page&#45;&gt;Load transactions from ASPSP -->
<g id="edge17" class="edge"><title>show transactions page&#45;&gt;Load transactions from ASPSP</title>
<path fill="none" stroke="#000000" stroke-width="1.06301" d="M4561.39,-695.799C4566.84,-683.932 4574.18,-667.928 4580.36,-654.449"/>
<polygon fill="#000000" stroke="#000000" stroke-width="1.06301" points="4583.63,-655.724 4584.62,-645.175 4577.27,-652.805 4583.63,-655.724"/>
<text text-anchor="middle" x="4579" y="-666.8" font-family="Times New Roman,serif" font-size="14.00" fill="#000000">1</text>
</g>
<!-- get account list -->
<g id="node14" class="node"><title>get account list</title>
<polygon fill="#00ffff" stroke="black" points="4661.5,-558 4541.5,-558 4541.5,-522 4661.5,-522 4661.5,-558"/>
<text text-anchor="middle" x="4601.5" y="-536.3" font-family="Times New Roman,serif" font-size="14.00">get account list (1)</text>
</g>
<!-- Load transactions from ASPSP&#45;&gt;get account list -->
<g id="edge18" class="edge"><title>Load transactions from ASPSP&#45;&gt;get account list</title>
<path fill="none" stroke="#000000" stroke-width="1.06301" d="M4594.32,-608.799C4595.55,-597.163 4597.21,-581.548 4598.62,-568.237"/>
<polygon fill="#000000" stroke="#000000" stroke-width="1.06301" points="4602.11,-568.488 4599.68,-558.175 4595.15,-567.751 4602.11,-568.488"/>
<text text-anchor="middle" x="4602" y="-579.8" font-family="Times New Roman,serif" font-size="14.00" fill="#000000">1</text>
</g>
<!-- &lt;&#45;&#45; HTTP/1.1 200 \\n	&lt;&#45;&#45; x&#45;request&#45;id -->
<g id="node15" class="node"><title>&lt;&#45;&#45; HTTP/1.1 200 \\n	&lt;&#45;&#45; x&#45;request&#45;id</title>
<polygon fill="#00ffff" stroke="black" points="5697,-471 3514,-471 3514,-435 5697,-435 5697,-471"/>
<text text-anchor="middle" x="4605.5" y="-449.3" font-family="Times New Roman,serif" font-size="14.00">&lt;&#45;&#45; HTTP/1.1 200 \n	&lt;&#45;&#45; x&#45;request&#45;id: c8245c17&#45;c7b6&#45;4e2c&#45;b05b&#45;08ad9e8bc331\n	&lt;&#45;&#45; date: Tue, 09 Jun 2020 18:08:51 GMT\n	&lt;&#45;&#45; content&#45;length: 85\n	&lt;&#45;&#45; vary: Access&#45;Control&#45;Request&#45;Headers\n	&lt;&#45;&#45; x&#45;robots&#45;tag: none\n	&lt;&#45;&#45; content&#45;type: application/json\n	&lt;&#45;&#45;\n	&lt;&#45;&#45; Response body [application/json]: {&quot;consentStatus&quot;:&quot;******&quot;,&quot;psuMessage&quot;:&quot;******&quot;}\n	&lt;&#45;&#45; (1)</text>
</g>
<!-- get account list&#45;&gt;&lt;&#45;&#45; HTTP/1.1 200 \\n	&lt;&#45;&#45; x&#45;request&#45;id -->
<g id="edge19" class="edge"><title>get account list&#45;&gt;&lt;&#45;&#45; HTTP/1.1 200 \\n	&lt;&#45;&#45; x&#45;request&#45;id</title>
<path fill="none" stroke="#000000" stroke-width="1.06301" d="M4602.31,-521.799C4602.86,-510.163 4603.59,-494.548 4604.22,-481.237"/>
<polygon fill="#000000" stroke="#000000" stroke-width="1.06301" points="4607.72,-481.329 4604.69,-471.175 4600.73,-481 4607.72,-481.329"/>
<text text-anchor="middle" x="4608" y="-492.8" font-family="Times New Roman,serif" font-size="14.00" fill="#000000">1</text>
</g>
<!-- get account list response status &#45; 200 -->
<g id="node16" class="node"><title>get account list response status &#45; 200</title>
<polygon fill="#00ffff" stroke="black" points="4949.5,-384 4707.5,-384 4707.5,-348 4949.5,-348 4949.5,-384"/>
<text text-anchor="middle" x="4828.5" y="-362.3" font-family="Times New Roman,serif" font-size="14.00">get account list response status &#45; 200 (1)</text>
</g>
<!-- &lt;&#45;&#45; HTTP/1.1 200 \\n	&lt;&#45;&#45; x&#45;request&#45;id&#45;&gt;get account list response status &#45; 200 -->
<g id="edge20" class="edge"><title>&lt;&#45;&#45; HTTP/1.1 200 \\n	&lt;&#45;&#45; x&#45;request&#45;id&#45;&gt;get account list response status &#45; 200</title>
<path fill="none" stroke="#000000" stroke-width="1.06301" d="M4650.36,-434.901C4686.12,-421.27 4736.33,-402.133 4774.33,-387.648"/>
<polygon fill="#000000" stroke="#000000" stroke-width="1.06301" points="4775.61,-390.904 4783.71,-384.071 4773.12,-384.363 4775.61,-390.904"/>
<text text-anchor="middle" x="4734" y="-405.8" font-family="Times New Roman,serif" font-size="14.00" fill="#000000">1</text>
</g>
<!-- get transaction list response status &#45; 200 -->
<g id="node20" class="node"><title>get transaction list response status &#45; 200</title>
<polygon fill="#00ffff" stroke="black" points="4207,-384 3948,-384 3948,-348 4207,-348 4207,-384"/>
<text text-anchor="middle" x="4077.5" y="-362.3" font-family="Times New Roman,serif" font-size="14.00">get transaction list response status &#45; 200 (1)</text>
</g>
<!-- &lt;&#45;&#45; HTTP/1.1 200 \\n	&lt;&#45;&#45; x&#45;request&#45;id&#45;&gt;get transaction list response status &#45; 200 -->
<g id="edge25" class="edge"><title>&lt;&#45;&#45; HTTP/1.1 200 \\n	&lt;&#45;&#45; x&#45;request&#45;id&#45;&gt;get transaction list response status &#45; 200</title>
<path fill="none" stroke="#000000" stroke-width="1.06301" d="M4466.75,-434.966C4426.6,-429.65 4382.75,-423.47 4342.5,-417 4285.51,-407.839 4221.96,-395.906 4171.37,-385.995"/>
<polygon fill="#000000" stroke="#000000" stroke-width="1.06301" points="4171.92,-382.536 4161.44,-384.041 4170.57,-389.405 4171.92,-382.536"/>
<text text-anchor="middle" x="4346" y="-405.8" font-family="Times New Roman,serif" font-size="14.00" fill="#000000">1</text>
</g>
<!-- Consent status is valid -->
<g id="node22" class="node"><title>Consent status is valid</title>
<polygon fill="#00ffff" stroke="black" points="4610,-384 4449,-384 4449,-348 4610,-348 4610,-384"/>
<text text-anchor="middle" x="4529.5" y="-362.3" font-family="Times New Roman,serif" font-size="14.00">Consent status is valid (1)</text>
</g>
<!-- &lt;&#45;&#45; HTTP/1.1 200 \\n	&lt;&#45;&#45; x&#45;request&#45;id&#45;&gt;Consent status is valid -->
<g id="edge28" class="edge"><title>&lt;&#45;&#45; HTTP/1.1 200 \\n	&lt;&#45;&#45; x&#45;request&#45;id&#45;&gt;Consent status is valid</title>
<path fill="none" stroke="#000000" stroke-width="1.06301" d="M4590.12,-434.799C4579.1,-422.471 4564.08,-405.679 4551.75,-391.89"/>
<polygon fill="#000000" stroke="#000000" stroke-width="1.06301" points="4554.13,-389.297 4544.86,-384.175 4548.91,-393.963 4554.13,-389.297"/>
<text text-anchor="middle" x="4576" y="-405.8" font-family="Times New Roman,serif" font-size="14.00" fill="#000000">1</text>
</g>
<!-- Processing AccountFoundEvent -->
<g id="node17" class="node"><title>Processing AccountFoundEvent</title>
<polygon fill="#00ffff" stroke="black" points="5291.5,-297 4631.5,-297 4631.5,-261 5291.5,-261 5291.5,-297"/>
<text text-anchor="middle" x="4961.5" y="-275.3" font-family="Times New Roman,serif" font-size="14.00">Processing AccountFoundEvent: BaseEvent{data=******, approach=UNKNOWN, step=GET_ACCOUNTS} (1)</text>
</g>
<!-- get account list response status &#45; 200&#45;&gt;Processing AccountFoundEvent -->
<g id="edge21" class="edge"><title>get account list response status &#45; 200&#45;&gt;Processing AccountFoundEvent</title>
<path fill="none" stroke="#000000" stroke-width="1.06301" d="M4855.41,-347.799C4875.79,-334.78 4903.95,-316.781 4926.14,-302.6"/>
<polygon fill="#000000" stroke="#000000" stroke-width="1.06301" points="4928.08,-305.51 4934.63,-297.175 4924.31,-299.611 4928.08,-305.51"/>
<text text-anchor="middle" x="4907" y="-318.8" font-family="Times New Roman,serif" font-size="14.00" fill="#000000">1</text>
</g>
<!-- get transaction list -->
<g id="node18" class="node"><title>get transaction list</title>
<polygon fill="#00ffff" stroke="black" points="5266,-210 5129,-210 5129,-174 5266,-174 5266,-210"/>
<text text-anchor="middle" x="5197.5" y="-188.3" font-family="Times New Roman,serif" font-size="14.00">get transaction list (1)</text>
</g>
<!-- Processing AccountFoundEvent&#45;&gt;get transaction list -->
<g id="edge22" class="edge"><title>Processing AccountFoundEvent&#45;&gt;get transaction list</title>
<path fill="none" stroke="#000000" stroke-width="1.06301" d="M5008.97,-260.901C5046.98,-247.212 5100.41,-227.971 5140.68,-213.464"/>
<polygon fill="#000000" stroke="#000000" stroke-width="1.06301" points="5141.88,-216.753 5150.1,-210.071 5139.51,-210.167 5141.88,-216.753"/>
<text text-anchor="middle" x="5098" y="-231.8" font-family="Times New Roman,serif" font-size="14.00" fill="#000000">1</text>
</g>
<!-- &lt;&#45;&#45; There is no information about transactions -->
<g id="node19" class="node"><title>&lt;&#45;&#45; There is no information about transactions</title>
<polygon fill="#00ffff" stroke="black" points="5436,-123 5143,-123 5143,-87 5436,-87 5436,-123"/>
<text text-anchor="middle" x="5289.5" y="-101.3" font-family="Times New Roman,serif" font-size="14.00">&lt;&#45;&#45; There is no information about transactions (1)</text>
</g>
<!-- get transaction list&#45;&gt;&lt;&#45;&#45; There is no information about transactions -->
<g id="edge23" class="edge"><title>get transaction list&#45;&gt;&lt;&#45;&#45; There is no information about transactions</title>
<path fill="none" stroke="#000000" stroke-width="1.06301" d="M5216.12,-173.799C5229.71,-161.241 5248.32,-144.049 5263.39,-130.12"/>
<polygon fill="#000000" stroke="#000000" stroke-width="1.06301" points="5265.94,-132.532 5270.91,-123.175 5261.19,-127.391 5265.94,-132.532"/>
<text text-anchor="middle" x="5253" y="-144.8" font-family="Times New Roman,serif" font-size="14.00" fill="#000000">1</text>
</g>
<!-- &lt;&#45;&#45; There is no information about transactions&#45;&gt;&lt;&#45;&#45; HTTP/1.1 200 \\n	&lt;&#45;&#45; x&#45;request&#45;id -->
<g id="edge24" class="edge"><title>&lt;&#45;&#45; There is no information about transactions&#45;&gt;&lt;&#45;&#45; HTTP/1.1 200 \\n	&lt;&#45;&#45; x&#45;request&#45;id</title>
<path fill="none" stroke="#000000" stroke-width="1.06301" d="M5302.37,-123.234C5313.39,-139.736 5327.5,-165.783 5327.5,-191 5327.5,-367 5327.5,-367 5327.5,-367 5327.5,-401.43 5196.33,-421.952 5045.8,-434.167"/>
<polygon fill="#000000" stroke="#000000" stroke-width="1.06301" points="5045.09,-430.713 5035.4,-434.996 5045.64,-437.691 5045.09,-430.713"/>
<text text-anchor="middle" x="5331" y="-275.3" font-family="Times New Roman,serif" font-size="14.00" fill="#000000">1</text>
</g>
<!-- Processing TransactionsReceivedEvent -->
<g id="node21" class="node"><title>Processing TransactionsReceivedEvent</title>
<polygon fill="#00ffff" stroke="black" points="4338,-297 3607,-297 3607,-261 4338,-261 4338,-297"/>
<text text-anchor="middle" x="3972.5" y="-275.3" font-family="Times New Roman,serif" font-size="14.00">Processing TransactionsReceivedEvent: BaseEvent{data=******, approach=UNKNOWN, step=GET_TRANSACTIONS} (1)</text>
</g>
<!-- get transaction list response status &#45; 200&#45;&gt;Processing TransactionsReceivedEvent -->
<g id="edge26" class="edge"><title>get transaction list response status &#45; 200&#45;&gt;Processing TransactionsReceivedEvent</title>
<path fill="none" stroke="#000000" stroke-width="1.06301" d="M4056.25,-347.799C4040.6,-335.126 4019.11,-317.734 4001.82,-303.738"/>
<polygon fill="#000000" stroke="#000000" stroke-width="1.06301" points="4003.69,-300.747 3993.72,-297.175 3999.29,-306.188 4003.69,-300.747"/>
<text text-anchor="middle" x="4035" y="-318.8" font-family="Times New Roman,serif" font-size="14.00" fill="#000000">1</text>
</g>
<!-- Processing TransactionsReceivedEvent&#45;&gt;&lt;&#45;&#45; HTTP/1.1 200 \\n	&lt;&#45;&#45; x&#45;request&#45;id -->
<g id="edge27" class="edge"><title>Processing TransactionsReceivedEvent&#45;&gt;&lt;&#45;&#45; HTTP/1.1 200 \\n	&lt;&#45;&#45; x&#45;request&#45;id</title>
<path fill="none" stroke="#000000" stroke-width="1.06301" d="M4035.32,-297.071C4153.39,-329.151 4407.73,-398.262 4532.9,-432.274"/>
<polygon fill="#000000" stroke="#000000" stroke-width="1.06301" points="4532.21,-435.714 4542.78,-434.958 4534.05,-428.959 4532.21,-435.714"/>
<text text-anchor="middle" x="4356" y="-362.3" font-family="Times New Roman,serif" font-size="14.00" fill="#000000">1</text>
</g>
<!-- SCA status error. Code=405. Message: -->
<g id="node23" class="node"><title>SCA status error. Code=405. Message:</title>
<polygon fill="#00ffff" stroke="black" points="4613,-297 4356,-297 4356,-261 4613,-261 4613,-297"/>
<text text-anchor="middle" x="4484.5" y="-275.3" font-family="Times New Roman,serif" font-size="14.00">SCA status error. Code=405. Message: (1)</text>
</g>
<!-- Consent status is valid&#45;&gt;SCA status error. Code=405. Message: -->
<g id="edge29" class="edge"><title>Consent status is valid&#45;&gt;SCA status error. Code=405. Message:</title>
<path fill="none" stroke="#000000" stroke-width="1.06301" d="M4520.39,-347.799C4514.05,-335.817 4505.47,-319.617 4498.29,-306.057"/>
<polygon fill="#000000" stroke="#000000" stroke-width="1.06301" points="4501.37,-304.376 4493.59,-297.175 4495.18,-307.651 4501.37,-304.376"/>
<text text-anchor="middle" x="4514" y="-318.8" font-family="Times New Roman,serif" font-size="14.00" fill="#000000">1</text>
</g>
<!-- &lt;&#45;&#45; HTTP/1.1 204 \\n	&lt;&#45;&#45; x&#45;request&#45;id -->
<g id="node24" class="node"><title>&lt;&#45;&#45; HTTP/1.1 204 \\n	&lt;&#45;&#45; x&#45;request&#45;id</title>
<polygon fill="#00ffff" stroke="black" points="5044,-210 3551,-210 3551,-174 5044,-174 5044,-210"/>
<text text-anchor="middle" x="4297.5" y="-188.3" font-family="Times New Roman,serif" font-size="14.00">&lt;&#45;&#45; HTTP/1.1 204 \n	&lt;&#45;&#45; x&#45;request&#45;id: 99a9127e&#45;1226&#45;43c7&#45;854c&#45;38b53d88c692\n	&lt;&#45;&#45; date: Tue, 09 Jun 2020 18:08:51 GMT\n	&lt;&#45;&#45; vary: Access&#45;Control&#45;Request&#45;Headers\n	&lt;&#45;&#45; x&#45;robots&#45;tag: none\n	&lt;&#45;&#45;\n	&lt;&#45;&#45; Response body []: ******\n	&lt;&#45;&#45; (1)</text>
</g>
<!-- SCA status error. Code=405. Message:&#45;&gt;&lt;&#45;&#45; HTTP/1.1 204 \\n	&lt;&#45;&#45; x&#45;request&#45;id -->
<g id="edge30" class="edge"><title>SCA status error. Code=405. Message:&#45;&gt;&lt;&#45;&#45; HTTP/1.1 204 \\n	&lt;&#45;&#45; x&#45;request&#45;id</title>
<path fill="none" stroke="#000000" stroke-width="1.06301" d="M4446.66,-260.799C4417.16,-247.39 4376.04,-228.7 4344.44,-214.338"/>
<polygon fill="#000000" stroke="#000000" stroke-width="1.06301" points="4345.52,-210.982 4334.97,-210.03 4342.62,-217.355 4345.52,-210.982"/>
<text text-anchor="middle" x="4406" y="-231.8" font-family="Times New Roman,serif" font-size="14.00" fill="#000000">1</text>
</g>
<!-- Delete consent status is 204 -->
<g id="node25" class="node"><title>Delete consent status is 204</title>
<polygon fill="#00ffff" stroke="black" points="3880,-123 3689,-123 3689,-87 3880,-87 3880,-123"/>
<text text-anchor="middle" x="3784.5" y="-101.3" font-family="Times New Roman,serif" font-size="14.00">Delete consent status is 204 (1)</text>
</g>
<!-- &lt;&#45;&#45; HTTP/1.1 204 \\n	&lt;&#45;&#45; x&#45;request&#45;id&#45;&gt;Delete consent status is 204 -->
<g id="edge31" class="edge"><title>&lt;&#45;&#45; HTTP/1.1 204 \\n	&lt;&#45;&#45; x&#45;request&#45;id&#45;&gt;Delete consent status is 204</title>
<path fill="none" stroke="#000000" stroke-width="1.06301" d="M4194.61,-173.952C4106.23,-159.308 3979.32,-138.281 3890.15,-123.505"/>
<polygon fill="#000000" stroke="#000000" stroke-width="1.06301" points="3890.72,-120.052 3880.28,-121.871 3889.58,-126.958 3890.72,-120.052"/>
<text text-anchor="middle" x="4076" y="-144.8" font-family="Times New Roman,serif" font-size="14.00" fill="#000000">1</text>
</g>
<!-- Delete consent status is 204&#45;&gt;end_0 -->
<g id="edge35" class="edge"><title>Delete consent status is 204&#45;&gt;end_0</title>
<path fill="none" stroke="#000000" stroke-width="1.06301" d="M3724.96,-86.9012C3664.28,-69.4761 3572.26,-43.0528 3522.81,-28.8526"/>
<polygon fill="#000000" stroke="#000000" stroke-width="1.06301" points="3523.51,-25.4117 3512.93,-26.0156 3521.58,-32.1398 3523.51,-25.4117"/>
<text text-anchor="middle" x="3658" y="-57.8" font-family="Times New Roman,serif" font-size="14.00" fill="#000000">1</text>
</g>
<!-- start_0 -->
<g id="node26" class="node"><title>start_0</title>
<ellipse fill="#32cd32" stroke="#000000" cx="5615.5" cy="-1758" rx="27" ry="18"/>
<text text-anchor="middle" x="5615.5" y="-1756.1" font-family="Times New Roman,serif" font-size="8.00" fill="#32cd32">@@S</text>
</g>
<!-- start_0&#45;&gt;create a new session -->
<g id="edge32" class="edge"><title>start_0&#45;&gt;create a new session</title>
<path fill="none" stroke="#000000" stroke-width="1.06301" d="M5615.5,-1739.8C5615.5,-1728.16 5615.5,-1712.55 5615.5,-1699.24"/>
<polygon fill="#000000" stroke="#000000" stroke-width="1.06301" points="5619,-1699.18 5615.5,-1689.18 5612,-1699.18 5619,-1699.18"/>
<text text-anchor="middle" x="5619" y="-1710.8" font-family="Times New Roman,serif" font-size="14.00" fill="#000000">1</text>
</g>
</g>
</svg>
